<?xml version="1.0" encoding="UTF-8" standalone="no"?>
<svg
   color-interpolation="auto"
   color-rendering="auto"
   fill="#000000"
   fill-opacity="1"
   font-family="Dialog"
   font-size="12px"
   font-style="normal"
   font-weight="normal"
   height="1800"
   image-rendering="auto"
   shape-rendering="auto"
   stroke="#000000"
   stroke-dasharray="none"
   stroke-dashoffset="0"
   stroke-linecap="square"
   stroke-linejoin="miter"
   stroke-miterlimit="10"
   stroke-opacity="1"
   stroke-width="1"
   text-rendering="auto"
   width="1630"
   version="1.1"
   id="svg212"
   xmlns="http://www.w3.org/2000/svg"
   xmlns:svg="http://www.w3.org/2000/svg">
  <!--Generated by Marvin with Batik SVG Generator-->
  <defs
     id="genericDefs">
    <defs
       id="33562466639-defs1">
      <clipPath
         clipPathUnits="userSpaceOnUse"
         id="33562466544-clipPath1">
        <path
           d="M 0,0 H 1630 V 1665 H 0 Z"
           id="path1" />
      </clipPath>
      <clipPath
         clipPathUnits="userSpaceOnUse"
         id="33562466911-clipPath1">
        <path
           d="m -922.3869,-96.8222 h 1630 v 1664.9999 h -1630 z"
           id="path2" />
      </clipPath>
      <clipPath
         clipPathUnits="userSpaceOnUse"
         id="33562466278-clipPath1">
        <path
           d="m -783.6726,-260.9839 h 1630 v 1665 h -1630 z"
           id="path3" />
      </clipPath>
      <clipPath
         clipPathUnits="userSpaceOnUse"
         id="33562466238-clipPath1">
        <path
           d="m -660.5294,-260.9831 h 1630 v 1664.9999 h -1630 z"
           id="path4" />
      </clipPath>
      <clipPath
         clipPathUnits="userSpaceOnUse"
         id="33562466282-clipPath1">
        <path
           d="m -384.2202,-332.0777 h 1630 v 1665.0001 h -1630 z"
           id="path5" />
      </clipPath>
      <clipPath
         clipPathUnits="userSpaceOnUse"
         id="33562466153-clipPath1">
        <path
           d="m -722.1017,-154.3399 h 1630 V 1510.66 h -1630 z"
           id="path6" />
      </clipPath>
      <clipPath
         clipPathUnits="userSpaceOnUse"
         id="33562466666-clipPath1">
        <path
           d="M -1354.0789,-590.0096 H 275.9212 v 1665.0001 h -1630.0001 z"
           id="path7" />
      </clipPath>
      <clipPath
         clipPathUnits="userSpaceOnUse"
         id="33562466748-clipPath1">
        <path
           d="m -1293.5074,-483.3648 h 1630 v 1665.0001 h -1630 z"
           id="path8" />
      </clipPath>
      <clipPath
         clipPathUnits="userSpaceOnUse"
         id="33562466579-clipPath1">
        <path
           d="m -1201.1517,-990.1338 h 1630 v 1665 h -1630 z"
           id="path9" />
      </clipPath>
      <clipPath
         clipPathUnits="userSpaceOnUse"
         id="33562466554-clipPath1">
        <path
           d="M -1139.5793,-883.489 H 490.4206 v 1665 h -1629.9999 z"
           id="path10" />
      </clipPath>
      <clipPath
         clipPathUnits="userSpaceOnUse"
         id="33562466593-clipPath1">
        <path
           d="m -1385.8656,-883.4878 h 1630 v 1665 h -1630 z"
           id="path11" />
      </clipPath>
      <clipPath
         clipPathUnits="userSpaceOnUse"
         id="33562466807-clipPath1">
        <path
           d="M -1324.2946,-1061.2295 H 305.7055 V 603.7706 h -1630.0001 z"
           id="path12" />
      </clipPath>
      <clipPath
         clipPathUnits="userSpaceOnUse"
         id="33562466206-clipPath1">
        <path
           d="m -1262.7231,-1167.8743 h 1630 V 497.1258 h -1630 z"
           id="path13" />
      </clipPath>
      <clipPath
         clipPathUnits="userSpaceOnUse"
         id="33562466381-clipPath1">
        <path
           d="m -1509.0084,-883.4878 h 1630 v 1665 h -1630 z"
           id="path14" />
      </clipPath>
      <clipPath
         clipPathUnits="userSpaceOnUse"
         id="33562466978-clipPath1">
        <path
           d="m -980.8897,-1425.808 h 1630 v 1665 h -1630 z"
           id="path15" />
      </clipPath>
      <clipPath
         clipPathUnits="userSpaceOnUse"
         id="33562466274-clipPath1">
        <path
           d="m -919.3174,-1319.1632 h 1630 v 1665 h -1630 z"
           id="path16" />
      </clipPath>
      <clipPath
         clipPathUnits="userSpaceOnUse"
         id="33562466372-clipPath1">
        <path
           d="m -1104.0298,-1496.8999 h 1630 V 168.1002 h -1630 z"
           id="path17" />
      </clipPath>
      <clipPath
         clipPathUnits="userSpaceOnUse"
         id="33562466870-clipPath1">
        <path
           d="m -1042.462,-1603.5446 h 1630 v 1665 h -1630 z"
           id="path18" />
      </clipPath>
      <clipPath
         clipPathUnits="userSpaceOnUse"
         id="33562466541-clipPath1">
        <path
           d="M -1227.1732,-1425.8037 H 402.8267 V 239.1962 h -1629.9999 z"
           id="path19" />
      </clipPath>
      <clipPath
         clipPathUnits="userSpaceOnUse"
         id="33562466268-clipPath1">
        <path
           d="m -1291.1277,-1390.2559 h 1630 v 1665 h -1630 z"
           id="path20" />
      </clipPath>
      <clipPath
         clipPathUnits="userSpaceOnUse"
         id="33562466904-clipPath1">
        <path
           d="m -1350.316,-1425.8046 h 1630 v 1665 h -1630 z"
           id="path21" />
      </clipPath>
      <clipPath
         clipPathUnits="userSpaceOnUse"
         id="33562466490-clipPath1">
        <path
           d="M -1536.4835,-1390.2576 H 93.5164 v 1665 h -1629.9999 z"
           id="path22" />
      </clipPath>
      <clipPath
         clipPathUnits="userSpaceOnUse"
         id="33562466765-clipPath1">
        <path
           d="m -1288.7454,-1319.1594 h 1630 v 1665 h -1630 z"
           id="path23" />
      </clipPath>
      <clipPath
         clipPathUnits="userSpaceOnUse"
         id="33562466510-clipPath1">
        <path
           d="m -1295.4293,-1478.532 h 1630 v 1665 h -1630 z"
           id="path24" />
      </clipPath>
    </defs>
    <clipPath
       clipPathUnits="userSpaceOnUse"
       id="1167973738309-clipPath1">
      <path
         d="m 4.7374,25.0738 h 75.8997 v 16.283 H 4.7374 Z"
         id="path2-5" />
    </clipPath>
    <clipPath
       clipPathUnits="userSpaceOnUse"
       id="1167973738777-clipPath1">
      <path
         d="m 4.7374,252.9871 h 103.2131 v 16.283 H 4.7374 Z"
         id="path3-6" />
    </clipPath>
    <clipPath
       clipPathUnits="userSpaceOnUse"
       id="116797373863-clipPath1">
      <path
         d="M 4.7374,489.3824 H 92.718 V 505.928 H 4.7374 Z"
         id="path4-6" />
    </clipPath>
    <clipPath
       clipPathUnits="userSpaceOnUse"
       id="1167973738292-clipPath1">
      <path
         d="m 4.7374,777.9833 h 97.9605 v 16.283 H 4.7374 Z"
         id="path5-8" />
    </clipPath>
  </defs>
  <g
     id="g212"
     transform="translate(20.93048,12)">
    <g
       text-rendering="geometricPrecision"
       id="g25">
      <path
         clip-path="url(#33562466544-clipPath1)"
         d="m 555.3921,219.6784 v 0 l -61.571,35.549 c -0.7155,0.4132 -1.6306,0.168 -2.0437,-0.5476 -0.4132,-0.7156 -0.168,-1.6306 0.5476,-2.0438 v 0 l 61.5709,-35.549 c 0.7156,-0.4132 1.6306,-0.168 2.0438,0.5476 0.4131,0.7156 0.168,1.6306 -0.5476,2.0438 z"
         stroke="none"
         id="path25" />
    </g>
    <g
       text-rendering="geometricPrecision"
       id="g26">
      <path
         clip-path="url(#33562466544-clipPath1)"
         d="m 494.5692,253.9317 v 0 71.0981 c 0,0.8263 -0.6698,1.4961 -1.4961,1.4961 -0.8263,0 -1.4962,-0.6698 -1.4962,-1.4961 v 0 -71.0981 c 0,-0.8263 0.6699,-1.4961 1.4962,-1.4961 0.8263,0 1.4961,0.6698 1.4961,1.4961 z"
         stroke="none"
         id="path26" />
    </g>
    <g
       text-rendering="geometricPrecision"
       id="g27">
      <path
         clip-path="url(#33562466544-clipPath1)"
         d="m 493.8211,323.7341 v 0 l 61.571,35.549 c 0.7156,0.4132 0.9607,1.3282 0.5476,2.0438 -0.4132,0.7156 -1.3282,0.9608 -2.0438,0.5476 v 0 l -61.5709,-35.549 c -0.7156,-0.4132 -0.9608,-1.3282 -0.5476,-2.0438 0.4131,-0.7156 1.3282,-0.9607 2.0437,-0.5476 z"
         stroke="none"
         id="path27" />
    </g>
    <g
       text-rendering="geometricPrecision"
       id="g28">
      <path
         clip-path="url(#33562466544-clipPath1)"
         d="m 553.8959,359.2831 v 0 l 61.571,-35.549 c 0.7155,-0.4131 1.6305,-0.168 2.0437,0.5476 0.4132,0.7156 0.168,1.6306 -0.5476,2.0438 v 0 l -61.5709,35.549 c -0.7156,0.4132 -1.6306,0.168 -2.0438,-0.5476 -0.4132,-0.7156 -0.168,-1.6306 0.5476,-2.0438 z"
         stroke="none"
         id="path28" />
    </g>
    <g
       text-rendering="geometricPrecision"
       id="g29">
      <path
         clip-path="url(#33562466544-clipPath1)"
         d="m 614.7188,325.0298 v 0 -71.0981 c 0,-0.8263 0.6698,-1.4961 1.4961,-1.4961 0.8263,0 1.4962,0.6698 1.4962,1.4961 v 0 71.0981 c 0,0.8263 -0.6699,1.4961 -1.4962,1.4961 -0.8263,0 -1.4961,-0.6698 -1.4961,-1.4961 z"
         stroke="none"
         id="path29" />
    </g>
    <g
       text-rendering="geometricPrecision"
       id="g30">
      <path
         clip-path="url(#33562466544-clipPath1)"
         d="m 555.3921,217.087 v 0 l 61.5709,35.549 c 0.7156,0.4132 0.9608,1.3282 0.5476,2.0438 -0.4132,0.7156 -1.3282,0.9608 -2.0437,0.5476 v 0 l -61.571,-35.549 c -0.7156,-0.4132 -0.9608,-1.3282 -0.5476,-2.0438 0.4132,-0.7156 1.3282,-0.9608 2.0438,-0.5476 z"
         stroke="none"
         id="path30" />
    </g>
    <g
       text-rendering="geometricPrecision"
       id="g31">
      <path
         clip-path="url(#33562466544-clipPath1)"
         d="m 677.0392,359.2839 v 0 l 61.5723,-35.5467 c 0.7155,-0.4131 1.6306,-0.1679 2.0437,0.5477 0.4131,0.7156 0.1679,1.6306 -0.5477,2.0437 v 0 l -61.5723,35.5467 c -0.7156,0.4132 -1.6306,0.1679 -2.0437,-0.5476 -0.4131,-0.7156 -0.168,-1.6307 0.5477,-2.0438 z"
         stroke="none"
         id="path31" />
    </g>
    <g
       text-rendering="geometricPrecision"
       id="g32">
      <path
         clip-path="url(#33562466544-clipPath1)"
         d="m 737.8633,325.0329 v 0 -71.0965 c 0,-0.8263 0.6699,-1.4961 1.4962,-1.4961 0.8263,0 1.4962,0.6698 1.4962,1.4961 v 0 71.0965 c 0,0.8263 -0.6699,1.4962 -1.4962,1.4962 -0.8263,0 -1.4962,-0.6699 -1.4962,-1.4962 z"
         stroke="none"
         id="path32" />
    </g>
    <g
       text-rendering="geometricPrecision"
       id="g33">
      <path
         clip-path="url(#33562466544-clipPath1)"
         d="m 738.6114,255.2321 v 0 l -61.5723,-35.5498 c -0.7156,-0.4132 -0.9607,-1.3282 -0.5476,-2.0438 0.4132,-0.7156 1.3282,-0.9607 2.0438,-0.5476 v 0 l 61.5722,35.5498 c 0.7157,0.4132 0.9608,1.3282 0.5477,2.0438 -0.4132,0.7156 -1.3282,0.9608 -2.0438,0.5476 z"
         stroke="none"
         id="path33" />
    </g>
    <g
       text-rendering="geometricPrecision"
       id="g34">
      <path
         clip-path="url(#33562466544-clipPath1)"
         d="m 631.1853,317.0191 c -0.7156,-0.4131 -1.6306,-0.168 -2.0438,0.5476 -0.4131,0.7156 -0.1679,1.6306 0.5476,2.0438 l 46.0546,26.5904 c 0.7156,0.4131 1.6306,0.168 2.0438,-0.5476 0.4131,-0.7156 0.1679,-1.6306 -0.5476,-2.0438 z m -14.2223,6.715 c -0.7156,-0.4131 -1.6306,-0.168 -2.0437,0.5476 -0.4132,0.7156 -0.1681,1.6306 0.5476,2.0438 l 61.5722,35.5498 c 0.7156,0.4132 1.6306,0.168 2.0438,-0.5476 0.4131,-0.7156 0.168,-1.6306 -0.5476,-2.0438 z"
         stroke="none"
         id="path34" />
    </g>
    <g
       text-rendering="geometricPrecision"
       id="g35">
      <path
         clip-path="url(#33562466544-clipPath1)"
         d="m 615.4669,252.636 v 0 l 61.5723,-35.5451 c 0.7156,-0.4132 1.6306,-0.1679 2.0437,0.5477 0.4131,0.7156 0.1679,1.6306 -0.5477,2.0437 v 0 l -61.5722,35.5451 c -0.7157,0.4132 -1.6307,0.1679 -2.0438,-0.5477 -0.4132,-0.7156 -0.1679,-1.6306 0.5477,-2.0437 z"
         stroke="none"
         id="path35" />
    </g>
    <g
       text-rendering="geometricPrecision"
       id="g36">
      <path
         clip-path="url(#33562466544-clipPath1)"
         d="m 677.0405,145.9936 v 0 l 61.5709,-35.549 c 0.7156,-0.4132 1.6306,-0.168 2.0438,0.5476 0.4131,0.7156 0.168,1.6306 -0.5477,2.0438 v 0 l -61.5709,35.549 c -0.7156,0.4132 -1.6306,0.168 -2.0437,-0.5476 -0.4132,-0.7156 -0.168,-1.6306 0.5476,-2.0438 z"
         stroke="none"
         id="path36" />
    </g>
    <g
       text-rendering="geometricPrecision"
       id="g37">
      <path
         clip-path="url(#33562466544-clipPath1)"
         d="m 740.1075,110.4446 v 0 l 61.571,35.549 c 0.7156,0.4132 0.9608,1.3282 0.5476,2.0438 -0.4132,0.7156 -1.3282,0.9608 -2.0438,0.5476 v 0 l -61.5709,-35.549 c -0.7156,-0.4132 -0.9608,-1.3282 -0.5476,-2.0438 0.4131,-0.7156 1.3282,-0.9608 2.0437,-0.5476 z"
         stroke="none"
         id="path37" />
    </g>
    <g
       text-rendering="geometricPrecision"
       id="g38">
      <path
         clip-path="url(#33562466544-clipPath1)"
         d="m 802.4266,147.2893 v 0 71.0981 c 0,0.8263 -0.6699,1.4961 -1.4962,1.4961 -0.8263,0 -1.4961,-0.6698 -1.4961,-1.4961 v 0 -71.0981 c 0,-0.8263 0.6698,-1.4961 1.4961,-1.4961 0.8263,0 1.4962,0.6698 1.4962,1.4961 z"
         stroke="none"
         id="path38" />
    </g>
    <g
       text-rendering="geometricPrecision"
       id="g39">
      <path
         clip-path="url(#33562466544-clipPath1)"
         d="m 738.6114,252.6407 v 0 l 61.5709,-35.549 c 0.7156,-0.4132 1.6306,-0.168 2.0438,0.5476 0.4132,0.7156 0.168,1.6306 -0.5476,2.0438 v 0 l -61.571,35.549 c -0.7155,0.4132 -1.6306,0.168 -2.0437,-0.5476 -0.4132,-0.7156 -0.168,-1.6306 0.5476,-2.0438 z"
         stroke="none"
         id="path39" />
    </g>
    <g
       text-rendering="geometricPrecision"
       id="g40">
      <path
         clip-path="url(#33562466544-clipPath1)"
         d="m 676.2911,218.3866 v 0 l 10e-4,-71.0973 c 0,-0.8263 0.6699,-1.4961 1.4962,-1.4961 0.8263,0 1.4961,0.6698 1.4961,1.4961 v 0 l -10e-4,71.0973 c 0,0.8263 -0.6698,1.4962 -1.4961,1.4961 -0.8263,0 -1.4962,-0.6698 -1.4961,-1.4961 z"
         stroke="none"
         id="path40" />
    </g>
    <g
       text-rendering="geometricPrecision"
       id="g41">
      <path
         clip-path="url(#33562466544-clipPath1)"
         d="m 867.3328,239.4766 v 0 l 41.7909,-57.5176 c 0.4857,-0.6685 1.4213,-0.8167 2.0898,-0.331 0.6685,0.4857 0.8167,1.4214 0.3309,2.0898 v 0 l -41.7909,57.5177 c -0.4857,0.6685 -1.4213,0.8166 -2.0898,0.3309 -0.6685,-0.4857 -0.8167,-1.4213 -0.3309,-2.0898 z"
         stroke="none"
         id="path41" />
    </g>
    <g
       text-rendering="geometricPrecision"
       id="g42">
      <path
         clip-path="url(#33562466544-clipPath1)"
         d="m 909.1237,183.7178 v 0 l -41.7859,-57.5162 c -0.4857,-0.6685 -0.3375,-1.6041 0.331,-2.0898 0.6685,-0.4856 1.6041,-0.3374 2.0898,0.3311 v 0 l 41.7859,57.5161 c 0.4857,0.6685 0.3375,1.6042 -0.3311,2.0898 -0.6685,0.4857 -1.6041,0.3375 -2.0897,-0.331 z"
         stroke="none"
         id="path42" />
    </g>
    <g
       text-rendering="geometricPrecision"
       id="g43">
      <path
         clip-path="url(#33562466544-clipPath1)"
         d="m 800.4681,145.8664 v 0 l 67.6178,-21.9671 c 0.7859,-0.2553 1.6299,0.1748 1.8852,0.9607 0.2553,0.7858 -0.1748,1.6299 -0.9607,1.8852 v 0 l -67.6177,21.967 c -0.7859,0.2553 -1.6299,-0.1748 -1.8852,-0.9606 -0.2553,-0.7859 0.1748,-1.6299 0.9606,-1.8852 z"
         stroke="none"
         id="path43" />
    </g>
    <g
       text-rendering="geometricPrecision"
       id="g44">
      <path
         clip-path="url(#33562466544-clipPath1)"
         d="m 801.3928,216.9645 v 0 l 67.6126,21.9686 c 0.7859,0.2554 1.216,1.0994 0.9606,1.8853 -0.2553,0.7858 -1.0994,1.2159 -1.8852,0.9606 v 0 l -67.6127,-21.9687 c -0.7858,-0.2553 -1.216,-1.0994 -0.9606,-1.8853 0.2553,-0.7858 1.0994,-1.2159 1.8853,-0.9605 z"
         stroke="none"
         id="path44" />
    </g>
    <g
       text-rendering="geometricPrecision"
       id="g45">
      <path
         clip-path="url(#33562466544-clipPath1)"
         d="m 867.1253,124.8599 v 0 l 21.9723,-67.6161 c 0.2554,-0.7858 1.0994,-1.2159 1.8852,-0.9605 0.7859,0.2554 1.2159,1.0994 0.9606,1.8853 v 0 l -21.9723,67.616 c -0.2554,0.7859 -1.0995,1.2159 -1.8853,0.9605 -0.7859,-0.2553 -1.2159,-1.0994 -0.9605,-1.8852 z"
         stroke="none"
         id="path45" />
    </g>
    <g
       text-rendering="geometricPrecision"
       id="g46">
      <path
         clip-path="url(#33562466544-clipPath1)"
         d="m 952.8399,20.8622 v 0 l 61.5714,35.5483 c 0.7156,0.4131 0.9608,1.3282 0.5476,2.0438 -0.4131,0.7155 -1.3282,0.9607 -2.0437,0.5476 v 0 L 951.3438,23.4536 c -0.7156,-0.4131 -0.9608,-1.3281 -0.5477,-2.0437 0.4132,-0.7156 1.3282,-0.9608 2.0438,-0.5477 z"
         stroke="none"
         id="path46" />
    </g>
    <g
       text-rendering="geometricPrecision"
       id="g47">
      <path
         clip-path="url(#33562466544-clipPath1)"
         d="m 1012.9152,56.4105 v 0 l 61.5714,-35.5483 c 0.7155,-0.4131 1.6306,-0.1679 2.0437,0.5477 0.4132,0.7156 0.1679,1.6306 -0.5476,2.0437 v 0 l -61.5714,35.5483 c -0.7156,0.4131 -1.6306,0.1679 -2.0437,-0.5476 -0.4132,-0.7156 -0.168,-1.6307 0.5476,-2.0438 z"
         stroke="none"
         id="path47" />
    </g>
    <g
       text-rendering="geometricPrecision"
       id="g48">
      <path
         clip-path="url(#33562466544-clipPath1)"
         d="m 1075.9827,20.8622 v 0 l 61.5714,35.5483 c 0.7156,0.4131 0.9608,1.3282 0.5476,2.0438 -0.4131,0.7155 -1.3281,0.9607 -2.0437,0.5476 v 0 l -61.5714,-35.5483 c -0.7156,-0.4131 -0.9608,-1.3281 -0.5476,-2.0437 0.4131,-0.7156 1.3281,-0.9608 2.0437,-0.5477 z"
         stroke="none"
         id="path48" />
    </g>
    <g
       text-rendering="geometricPrecision"
       id="g49">
      <path
         clip-path="url(#33562466544-clipPath1)"
         d="m 1136.058,56.4105 v 0 l 61.5713,-35.5483 c 0.7157,-0.4131 1.6306,-0.1679 2.0438,0.5477 0.4131,0.7156 0.168,1.6306 -0.5476,2.0437 v 0 l -61.5714,35.5483 c -0.7156,0.4131 -1.6306,0.1679 -2.0438,-0.5476 -0.4131,-0.7156 -0.168,-1.6307 0.5477,-2.0438 z"
         stroke="none"
         id="path49" />
    </g>
    <g
       text-rendering="geometricPrecision"
       id="g50">
      <path
         clip-path="url(#33562466544-clipPath1)"
         d="m 1138.3021,57.7062 v 0 71.0965 c 0,0.8263 -0.6698,1.4961 -1.4961,1.4961 -0.8263,0 -1.4962,-0.6698 -1.4962,-1.4961 v 0 -71.0965 c 0,-0.8263 0.6699,-1.4962 1.4962,-1.4962 0.8263,0 1.4961,0.6699 1.4961,1.4962 z"
         stroke="none"
         id="path50" />
    </g>
    <g
       text-rendering="geometricPrecision"
       id="g51">
      <path
         clip-path="url(#33562466544-clipPath1)"
         d="m 889.7724,56.4105 v 0 l 61.5714,-35.5483 c 0.7156,-0.4131 1.6306,-0.1679 2.0438,0.5477 0.4131,0.7156 0.1679,1.6306 -0.5477,2.0437 v 0 l -61.5713,35.5483 c -0.7156,0.4131 -1.6307,0.1679 -2.0438,-0.5476 -0.4132,-0.7156 -0.168,-1.6307 0.5476,-2.0438 z"
         stroke="none"
         id="path51" />
    </g>
    <g
       text-rendering="geometricPrecision"
       id="g52">
      <path
         clip-path="url(#33562466544-clipPath1)"
         d="m 881.8953,53.6492 2.4839,1.6874 v 0 l 2.5468,-3.1449 v 0 l -2.1668,-2.0789 v 0 z m -12.8335,-8.7182 2.4839,1.6874 v 0 l 4.1847,-5.1676 v 0 l -2.1669,-2.0789 v 0 z m -12.8337,-8.7183 2.484,1.6874 v 0 l 5.8227,-7.1902 -2.1669,-2.0789 v 0 z m -12.8335,-8.7182 2.4839,1.6874 v 0 l 7.4607,-9.2129 -2.1669,-2.0789 z m -12.8336,-8.7182 2.4839,1.6874 v 0 l 9.0987,-11.2356 -2.1669,-2.0788 -4.7078,5.8135 z"
         stroke="none"
         id="path52" />
    </g>
    <g
       text-rendering="geometricPrecision"
       id="g53">
      <path
         clip-path="url(#33562466544-clipPath1)"
         d="m 873.522,123.2465 -2.9923,0.3487 v 3.4541 0 l 2.9923,0.3487 v 0 z m 15.4601,-1.8017 -2.9922,0.3487 v 0 7.0575 0 l 2.9922,0.3486 v 0 z m 15.4601,-1.8016 -2.9922,0.3487 v 0 10.6607 0 l 2.9922,0.3487 z m 15.4601,-1.8016 -2.9923,0.3487 v 14.2639 l 2.9923,0.3487 v -7.4807 z"
         stroke="none"
         id="path53" />
    </g>
    <g
       text-rendering="geometricPrecision"
       id="g54">
      <path
         clip-path="url(#33562466544-clipPath1)"
         d="m 804.1265,230.6553 -0.4146,-2.9923 h -5.5629 v 0 l -0.4147,2.9923 v 0 z m 2.1423,15.4601 -0.4146,-2.9923 v 0 h -9.8475 v 0 l -0.4147,2.9923 v 0 z m 2.1423,15.4601 -0.4146,-2.9923 h -14.1321 l -0.4147,2.9923 h 7.4807 z"
         stroke="none"
         id="path54" />
    </g>
    <g
       text-rendering="geometricPrecision"
       id="g55">
      <path
         clip-path="url(#33562466544-clipPath1)"
         d="m 680.9833,230.6545 -0.4146,-2.9923 h -5.563 v 0 l -0.4146,2.9923 v 0 z m 2.1423,15.4601 -0.4147,-2.9923 v 0 h -9.8474 v 0 l -0.4147,2.9923 v 0 z m 2.1423,15.4601 -0.4146,-2.9922 h -14.1322 v 0 l -0.4146,2.9922 h 7.4807 z"
         stroke="none"
         id="path55" />
    </g>
    <g
       text-rendering="geometricPrecision"
       id="g56">
      <path
         clip-path="url(#33562466544-clipPath1)"
         d="m 493.0731,325.0298 -0.7481,-1.2957 -36.9406,14.417 3.7403,6.4785 3.7403,6.4785 30.9561,-24.7826 z"
         stroke="none"
         id="path56" />
    </g>
    <g
       text-rendering="geometricPrecision"
       id="g57">
      <path
         clip-path="url(#33562466544-clipPath1)"
         d="m 616.2149,253.9317 h 1.4962 l 5.9845,-71.0965 h -7.4807 -7.4807 l 5.9846,71.0965 z"
         stroke="none"
         id="path57" />
    </g>
    <g
       text-rendering="geometricPrecision"
       id="g58">
      <path
         clip-path="url(#33562466544-clipPath1)"
         d="m 739.3595,253.9364 h 1.4962 l 5.9844,-43.1881 h -7.4806 -7.4807 l 5.9845,43.1881 z"
         stroke="none"
         id="path58" />
    </g>
    <g
       font-family="Arial"
       font-size="49px"
       text-rendering="geometricPrecision"
       transform="translate(922.3869,96.8222)"
       id="g189">
      <text
         clip-path="url(#33562466911-clipPath1)"
         stroke="none"
         x="0"
         xml:space="preserve"
         y="46"
         id="text188">H</text>
    </g>
    <g
       font-family="Arial"
       font-size="49px"
       text-rendering="geometricPrecision"
       transform="translate(783.6726,260.9839)"
       id="g190">
      <text
         clip-path="url(#33562466278-clipPath1)"
         stroke="none"
         x="0"
         xml:space="preserve"
         y="46"
         id="text189">H</text>
    </g>
    <g
       font-family="Arial"
       font-size="49px"
       text-rendering="geometricPrecision"
       transform="translate(660.5294,260.9831)"
       id="g191">
      <text
         clip-path="url(#33562466238-clipPath1)"
         stroke="none"
         x="0"
         xml:space="preserve"
         y="46"
         id="text190">H</text>
    </g>
    <g
       font-family="Arial"
       font-size="49px"
       text-rendering="geometricPrecision"
       transform="translate(384.2202,332.0777)"
       id="g192">
      <text
         clip-path="url(#33562466282-clipPath1)"
         stroke="none"
         x="0"
         xml:space="preserve"
         y="46"
         id="text191">HO</text>
    </g>
    <g
       font-family="Arial"
       font-size="49px"
       text-rendering="geometricPrecision"
       transform="translate(722.1017,154.3399)"
       id="g193">
      <text
         clip-path="url(#33562466153-clipPath1)"
         stroke="none"
         x="0"
         xml:space="preserve"
         y="46"
         id="text192">H</text>
    </g>
  </g>
  <g
     id="g213"
     transform="translate(-24.145147,28)">
    <g
       text-rendering="geometricPrecision"
       id="g59">
      <path
         clip-path="url(#33562466544-clipPath1)"
         d="m 1249.9536,617.2139 v 0 l 61.5714,-35.5483 c 0.7156,-0.4132 1.6306,-0.1679 2.0437,0.5477 0.4132,0.7155 0.168,1.6306 -0.5476,2.0437 v 0 l -61.5714,35.5482 c -0.7156,0.4132 -1.6306,0.168 -2.0437,-0.5476 -0.4132,-0.7155 -0.168,-1.6306 0.5476,-2.0437 z"
         stroke="none"
         id="path59" />
    </g>
    <g
       text-rendering="geometricPrecision"
       id="g60">
      <path
         clip-path="url(#33562466544-clipPath1)"
         d="m 1313.0211,581.6656 v 0 l 38.9957,22.5142 c 0.7156,0.4132 0.9607,1.3281 0.5477,2.0438 -0.4133,0.7155 -1.3283,0.9607 -2.0439,0.5476 v 0 L 1311.525,584.257 c -0.7157,-0.4131 -0.9608,-1.3282 -0.5477,-2.0437 0.4132,-0.7156 1.3282,-0.9609 2.0438,-0.5477 z"
         stroke="none"
         id="path60" />
    </g>
    <g
       text-rendering="geometricPrecision"
       id="g61">
      <path
         clip-path="url(#33562466544-clipPath1)"
         d="m 1304.3136,586.6929 c 0,0.8263 0.6698,1.4961 1.4961,1.4961 0.8263,0 1.4962,-0.6698 1.4962,-1.4961 v -45.8611 c 0,-0.8263 -0.6699,-1.4962 -1.4962,-1.4962 -0.8263,0 -1.4961,0.6699 -1.4961,1.4962 z m 12.9266,0 c 0,0.8263 0.6698,1.4961 1.4961,1.4961 0.8263,0 1.4962,-0.6698 1.4962,-1.4961 v -45.8611 c 0,-0.8263 -0.6699,-1.4962 -1.4962,-1.4962 -0.8263,0 -1.4961,0.6699 -1.4961,1.4962 z"
         stroke="none"
         id="path61" />
    </g>
    <g
       text-rendering="geometricPrecision"
       id="g62">
      <path
         clip-path="url(#33562466544-clipPath1)"
         d="m 1249.9536,619.8052 v 0 l -61.5714,-35.5482 c -0.7156,-0.4131 -0.9608,-1.3282 -0.5476,-2.0437 0.4131,-0.7156 1.3281,-0.9609 2.0437,-0.5477 v 0 l 61.5714,35.5483 c 0.7156,0.4131 0.9608,1.3282 0.5476,2.0437 -0.4131,0.7156 -1.3281,0.9608 -2.0437,0.5476 z"
         stroke="none"
         id="path62" />
    </g>
    <g
       text-rendering="geometricPrecision"
       id="g63">
      <path
         clip-path="url(#33562466544-clipPath1)"
         d="m 1189.8783,584.257 v 0 l -61.5713,35.5482 c -0.7156,0.4132 -1.6306,0.168 -2.0438,-0.5476 -0.4131,-0.7155 -0.168,-1.6306 0.5476,-2.0437 v 0 l 61.5714,-35.5483 c 0.7156,-0.4132 1.6306,-0.1679 2.0438,0.5477 0.4131,0.7155 0.168,1.6306 -0.5477,2.0437 z"
         stroke="none"
         id="path63" />
    </g>
    <g
       text-rendering="geometricPrecision"
       id="g64">
      <path
         clip-path="url(#33562466544-clipPath1)"
         d="m 1126.8108,619.8052 v 0 l -61.5713,-35.5482 c -0.7157,-0.4131 -0.9608,-1.3282 -0.5477,-2.0437 0.4132,-0.7156 1.3282,-0.9609 2.0438,-0.5477 v 0 l 61.5714,35.5483 c 0.7156,0.4131 0.9607,1.3282 0.5476,2.0437 -0.4132,0.7156 -1.3282,0.9608 -2.0438,0.5476 z"
         stroke="none"
         id="path64" />
    </g>
    <g
       text-rendering="geometricPrecision"
       id="g65">
      <path
         clip-path="url(#33562466544-clipPath1)"
         d="m 1066.7356,584.257 v 0 l -61.5714,35.5482 c -0.7156,0.4132 -1.6306,0.168 -2.0438,-0.5476 -0.4131,-0.7155 -0.1679,-1.6306 0.5476,-2.0437 v 0 l 61.5715,-35.5483 c 0.7156,-0.4132 1.6306,-0.1679 2.0437,0.5477 0.4132,0.7155 0.168,1.6306 -0.5476,2.0437 z"
         stroke="none"
         id="path65" />
    </g>
    <g
       text-rendering="geometricPrecision"
       id="g66">
      <path
         clip-path="url(#33562466544-clipPath1)"
         d="m 1003.668,619.8052 v 0 L 942.0967,584.257 c -0.7156,-0.4131 -0.9608,-1.3282 -0.5476,-2.0437 0.4131,-0.7156 1.3281,-0.9609 2.0437,-0.5477 v 0 l 61.5714,35.5483 c 0.7156,0.4131 0.9608,1.3282 0.5476,2.0437 -0.4132,0.7156 -1.3281,0.9608 -2.0438,0.5476 z"
         stroke="none"
         id="path66" />
    </g>
    <g
       text-rendering="geometricPrecision"
       id="g67">
      <path
         clip-path="url(#33562466544-clipPath1)"
         d="m 943.5928,584.257 v 0 l -61.5714,35.5482 c -0.7156,0.4132 -1.6306,0.168 -2.0437,-0.5476 -0.4132,-0.7155 -0.168,-1.6306 0.5476,-2.0437 v 0 l 61.5714,-35.5483 c 0.7156,-0.4132 1.6306,-0.1679 2.0437,0.5477 0.4132,0.7155 0.168,1.6306 -0.5476,2.0437 z"
         stroke="none"
         id="path67" />
    </g>
    <g
       text-rendering="geometricPrecision"
       id="g68">
      <path
         clip-path="url(#33562466544-clipPath1)"
         d="m 880.5253,619.8052 v 0 L 818.9539,584.257 c -0.7156,-0.4131 -0.9607,-1.3282 -0.5476,-2.0437 0.4132,-0.7156 1.3281,-0.9609 2.0438,-0.5477 v 0 l 61.5713,35.5483 c 0.7156,0.4131 0.9608,1.3282 0.5476,2.0437 -0.4131,0.7156 -1.3281,0.9608 -2.0437,0.5476 z"
         stroke="none"
         id="path68" />
    </g>
    <g
       text-rendering="geometricPrecision"
       id="g69">
      <path
         clip-path="url(#33562466544-clipPath1)"
         d="m 814.7422,597.3841 c 0.8263,0 1.4961,-0.6699 1.4961,-1.4962 0,-0.8263 -0.6698,-1.4961 -1.4961,-1.4961 h -61.1769 c -0.8263,0 -1.4961,0.6698 -1.4961,1.4961 0,0.8263 0.6698,1.4962 1.4961,1.4962 z m 4.9598,-12.9266 c 0.8263,0 1.4961,-0.6699 1.4961,-1.4962 0,-0.8263 -0.6698,-1.4962 -1.4961,-1.4962 h -71.0965 c -0.8263,0 -1.4962,0.6699 -1.4962,1.4962 0,0.8263 0.6699,1.4962 1.4962,1.4962 z"
         stroke="none"
         id="path69" />
    </g>
    <g
       text-rendering="geometricPrecision"
       id="g70">
      <path
         clip-path="url(#33562466544-clipPath1)"
         d="m 749.3535,584.257 v 0 l -61.5713,35.5482 c -0.7156,0.4132 -1.6306,0.168 -2.0438,-0.5476 -0.4131,-0.7155 -0.168,-1.6306 0.5476,-2.0437 v 0 l 61.5714,-35.5483 c 0.7156,-0.4132 1.6306,-0.1679 2.0438,0.5477 0.4131,0.7155 0.168,1.6306 -0.5477,2.0437 z"
         stroke="none"
         id="path70" />
    </g>
    <g
       text-rendering="geometricPrecision"
       id="g71">
      <path
         clip-path="url(#33562466544-clipPath1)"
         d="m 686.286,619.8052 v 0 L 624.7147,584.257 c -0.7157,-0.4131 -0.9609,-1.3282 -0.5477,-2.0437 0.4131,-0.7156 1.3282,-0.9609 2.0438,-0.5477 v 0 l 61.5714,35.5483 c 0.7155,0.4131 0.9607,1.3282 0.5476,2.0437 -0.4132,0.7156 -1.3282,0.9608 -2.0438,0.5476 z"
         stroke="none"
         id="path71" />
    </g>
    <g
       text-rendering="geometricPrecision"
       id="g72">
      <path
         clip-path="url(#33562466544-clipPath1)"
         d="m 626.2108,584.257 v 0 l -61.5714,35.5482 c -0.7156,0.4132 -1.6306,0.168 -2.0438,-0.5476 -0.4131,-0.7155 -0.1679,-1.6306 0.5476,-2.0437 v 0 l 61.5715,-35.5483 c 0.7155,-0.4132 1.6306,-0.1679 2.0437,0.5477 0.4132,0.7155 0.168,1.6306 -0.5476,2.0437 z"
         stroke="none"
         id="path72" />
    </g>
    <g
       text-rendering="geometricPrecision"
       id="g73">
      <path
         clip-path="url(#33562466544-clipPath1)"
         d="m 563.1432,619.8052 v 0 L 501.5719,584.257 c -0.7156,-0.4131 -0.9608,-1.3282 -0.5477,-2.0437 0.4132,-0.7156 1.3282,-0.9609 2.0438,-0.5477 v 0 l 61.5714,35.5483 c 0.7156,0.4131 0.9608,1.3282 0.5476,2.0437 -0.4131,0.7156 -1.3282,0.9608 -2.0438,0.5476 z"
         stroke="none"
         id="path73" />
    </g>
    <g
       text-rendering="geometricPrecision"
       id="g74">
      <path
         clip-path="url(#33562466544-clipPath1)"
         d="m 503.068,584.257 v 0 l -61.5714,35.5482 c -0.7156,0.4132 -1.6306,0.168 -2.0437,-0.5476 -0.4132,-0.7155 -0.168,-1.6306 0.5476,-2.0437 v 0 l 61.5714,-35.5483 c 0.7156,-0.4132 1.6306,-0.1679 2.0437,0.5477 0.4132,0.7155 0.168,1.6306 -0.5476,2.0437 z"
         stroke="none"
         id="path74" />
    </g>
    <g
       text-rendering="geometricPrecision"
       id="g75">
      <path
         clip-path="url(#33562466544-clipPath1)"
         d="m 440.0005,619.8052 v 0 L 378.4291,584.257 c -0.7156,-0.4131 -0.9608,-1.3282 -0.5476,-2.0437 0.4131,-0.7156 1.3282,-0.9609 2.0437,-0.5477 v 0 l 61.5714,35.5483 c 0.7156,0.4131 0.9608,1.3282 0.5477,2.0437 -0.4132,0.7156 -1.3282,0.9608 -2.0438,0.5476 z"
         stroke="none"
         id="path75" />
    </g>
    <g
       text-rendering="geometricPrecision"
       id="g76">
      <path
         clip-path="url(#33562466544-clipPath1)"
         d="m 379.9252,584.257 v 0 l -61.5713,35.5482 c -0.7156,0.4132 -1.6307,0.168 -2.0438,-0.5476 -0.4132,-0.7155 -0.168,-1.6306 0.5476,-2.0437 v 0 l 61.5714,-35.5483 c 0.7156,-0.4132 1.6306,-0.1679 2.0438,0.5477 0.4131,0.7155 0.1679,1.6306 -0.5477,2.0437 z"
         stroke="none"
         id="path76" />
    </g>
    <g
       text-rendering="geometricPrecision"
       id="g77">
      <path
         clip-path="url(#33562466544-clipPath1)"
         d="m 316.8577,619.8052 v 0 L 255.2863,584.257 c -0.7156,-0.4131 -0.9607,-1.3282 -0.5476,-2.0437 0.4132,-0.7156 1.3282,-0.9609 2.0438,-0.5477 v 0 l 61.5714,35.5483 c 0.7156,0.4131 0.9607,1.3282 0.5476,2.0437 -0.4132,0.7156 -1.3282,0.9608 -2.0438,0.5476 z"
         stroke="none"
         id="path77" />
    </g>
    <g
       font-family="Arial"
       font-size="49px"
       text-rendering="geometricPrecision"
       transform="translate(1354.0788,590.0096)"
       id="g194">
      <text
         clip-path="url(#33562466666-clipPath1)"
         stroke="none"
         x="0"
         xml:space="preserve"
         y="46"
         id="text193">OH</text>
    </g>
    <g
       font-family="Arial"
       font-size="49px"
       text-rendering="geometricPrecision"
       transform="translate(1293.5074,483.3648)"
       id="g195">
      <text
         clip-path="url(#33562466748-clipPath1)"
         stroke="none"
         x="0"
         xml:space="preserve"
         y="46"
         id="text194">O</text>
    </g>
  </g>
  <g
     id="g214"
     transform="translate(-7.8253232,82)">
    <g
       text-rendering="geometricPrecision"
       id="g78">
      <path
         clip-path="url(#33562466544-clipPath1)"
         d="m 1096.0247,1017.3381 v 0 l 61.5722,-35.5482 c 0.7156,-0.4132 1.6306,-0.168 2.0438,0.5476 0.4131,0.7155 0.168,1.6306 -0.5477,2.0437 v 0 l -61.5722,35.5483 c -0.7156,0.4132 -1.6307,0.1679 -2.0439,-0.5477 -0.4131,-0.7155 -0.1679,-1.6306 0.5478,-2.0437 z"
         stroke="none"
         id="path78" />
    </g>
    <g
       text-rendering="geometricPrecision"
       id="g79">
      <path
         clip-path="url(#33562466544-clipPath1)"
         d="m 1159.093,981.7899 v 0 l 38.9967,22.5143 c 0.7156,0.4131 0.9607,1.3281 0.5476,2.0438 -0.4132,0.7155 -1.3282,0.9607 -2.0438,0.5476 v 0 l -38.9966,-22.5144 c -0.7156,-0.4131 -0.9608,-1.3282 -0.5476,-2.0437 0.4131,-0.7156 1.3281,-0.9608 2.0437,-0.5476 z"
         stroke="none"
         id="path79" />
    </g>
    <g
       text-rendering="geometricPrecision"
       id="g80">
      <path
         clip-path="url(#33562466544-clipPath1)"
         d="m 1150.3855,986.8171 c 0,0.8263 0.6699,1.4961 1.4962,1.4961 0.8263,0 1.4961,-0.6698 1.4961,-1.4961 V 940.956 c 0,-0.8263 -0.6698,-1.4962 -1.4961,-1.4962 -0.8263,0 -1.4962,0.6699 -1.4962,1.4962 z m 12.9266,0 c 0,0.8263 0.67,1.4961 1.4962,1.4961 0.8263,0 1.4961,-0.6698 1.4961,-1.4961 V 940.956 c 0,-0.8263 -0.6698,-1.4962 -1.4961,-1.4962 -0.8262,0 -1.4962,0.6699 -1.4962,1.4962 z"
         stroke="none"
         id="path80" />
    </g>
    <g
       text-rendering="geometricPrecision"
       id="g81">
      <path
         clip-path="url(#33562466544-clipPath1)"
         d="m 1096.0245,1019.9294 v 0 l -61.5677,-35.5482 c -0.7156,-0.4132 -0.9607,-1.3282 -0.5475,-2.0438 0.4131,-0.7156 1.3281,-0.9607 2.0437,-0.5475 v 0 l 61.5678,35.5482 c 0.7155,0.4132 0.9606,1.3282 0.5476,2.0438 -0.4132,0.7156 -1.3283,0.9608 -2.0439,0.5475 z"
         stroke="none"
         id="path81" />
    </g>
    <g
       text-rendering="geometricPrecision"
       id="g82">
      <path
         clip-path="url(#33562466544-clipPath1)"
         d="m 1035.953,984.3812 v 0 l -61.5723,35.5483 c -0.7157,0.4132 -1.6307,0.1679 -2.0438,-0.5477 -0.4131,-0.7155 -0.168,-1.6306 0.5476,-2.0437 v 0 l 61.5724,-35.5482 c 0.7156,-0.4132 1.6306,-0.168 2.0437,0.5476 0.4132,0.7155 0.168,1.6306 -0.5476,2.0437 z"
         stroke="none"
         id="path82" />
    </g>
    <g
       text-rendering="geometricPrecision"
       id="g83">
      <path
         clip-path="url(#33562466544-clipPath1)"
         d="m 972.8845,1019.9295 v 0 l -61.5723,-35.5483 c -0.7156,-0.4131 -0.9608,-1.3282 -0.5477,-2.0437 0.4132,-0.7156 1.3282,-0.9608 2.0438,-0.5476 v 0 l 61.5724,35.5482 c 0.7156,0.4131 0.9607,1.3282 0.5476,2.0437 -0.4132,0.7156 -1.3282,0.9609 -2.0438,0.5477 z"
         stroke="none"
         id="path83" />
    </g>
    <g
       text-rendering="geometricPrecision"
       id="g84">
      <path
         clip-path="url(#33562466544-clipPath1)"
         d="m 912.8083,984.3812 v 0 l -61.5723,35.5483 c -0.7156,0.4132 -1.6307,0.1679 -2.0438,-0.5477 -0.4131,-0.7155 -0.168,-1.6306 0.5476,-2.0437 v 0 l 61.5724,-35.5482 c 0.7156,-0.4132 1.6306,-0.168 2.0438,0.5476 0.4131,0.7155 0.1679,1.6306 -0.5477,2.0437 z"
         stroke="none"
         id="path84" />
    </g>
    <g
       text-rendering="geometricPrecision"
       id="g85">
      <path
         clip-path="url(#33562466544-clipPath1)"
         d="m 849.7398,1019.9295 v 0 l -61.5723,-35.5483 c -0.7156,-0.4131 -0.9608,-1.3282 -0.5476,-2.0437 0.4131,-0.7156 1.3281,-0.9608 2.0437,-0.5476 v 0 l 61.5724,35.5482 c 0.7155,0.4131 0.9607,1.3282 0.5476,2.0437 -0.4132,0.7156 -1.3282,0.9609 -2.0438,0.5477 z"
         stroke="none"
         id="path85" />
    </g>
    <g
       text-rendering="geometricPrecision"
       id="g86">
      <path
         clip-path="url(#33562466544-clipPath1)"
         d="m 789.6636,984.3812 v 0 l -61.5677,35.5482 c -0.7156,0.4133 -1.6306,0.1681 -2.0438,-0.5475 -0.4131,-0.7156 -0.1679,-1.6306 0.5476,-2.0438 v 0 l 61.5677,-35.5482 c 0.7156,-0.4132 1.6306,-0.1681 2.0438,0.5475 0.4132,0.7156 0.168,1.6306 -0.5476,2.0438 z"
         stroke="none"
         id="path86" />
    </g>
    <g
       text-rendering="geometricPrecision"
       id="g87">
      <path
         clip-path="url(#33562466544-clipPath1)"
         d="m 726.5997,1019.9295 v 0 l -61.5723,-35.5483 c -0.7156,-0.4131 -0.9607,-1.3282 -0.5476,-2.0437 0.4131,-0.7156 1.3281,-0.9608 2.0438,-0.5476 v 0 l 61.5723,35.5482 c 0.7156,0.4131 0.9607,1.3282 0.5476,2.0437 -0.4132,0.7156 -1.3281,0.9609 -2.0438,0.5477 z"
         stroke="none"
         id="path87" />
    </g>
    <g
       text-rendering="geometricPrecision"
       id="g88">
      <path
         clip-path="url(#33562466544-clipPath1)"
         d="m 660.8157,997.5083 c 0.8263,0 1.4961,-0.6699 1.4961,-1.4962 0,-0.8262 -0.6698,-1.496 -1.4961,-1.496 h -61.177 c -0.8263,0 -1.4961,0.6698 -1.4961,1.496 0,0.8263 0.6698,1.4962 1.4961,1.4962 z m 4.9598,-12.9266 c 0.8262,0 1.4961,-0.6699 1.4961,-1.4962 0,-0.8263 -0.6699,-1.4961 -1.4961,-1.4961 H 594.679 c -0.8263,0 -1.4962,0.6698 -1.4962,1.4961 0,0.8263 0.6699,1.4962 1.4962,1.4962 z"
         stroke="none"
         id="path88" />
    </g>
    <g
       text-rendering="geometricPrecision"
       id="g89">
      <path
         clip-path="url(#33562466544-clipPath1)"
         d="m 595.427,984.3812 v 0 l -61.5723,35.5483 c -0.7156,0.4132 -1.6306,0.1679 -2.0438,-0.5477 -0.4131,-0.7155 -0.168,-1.6306 0.5477,-2.0437 v 0 l 61.5723,-35.5482 c 0.7156,-0.4132 1.6306,-0.168 2.0438,0.5476 0.4131,0.7155 0.1679,1.6306 -0.5477,2.0437 z"
         stroke="none"
         id="path89" />
    </g>
    <g
       text-rendering="geometricPrecision"
       id="g90">
      <path
         clip-path="url(#33562466544-clipPath1)"
         d="m 532.3586,1019.9295 v 0 l -61.5724,-35.5483 c -0.7156,-0.4131 -0.9608,-1.3282 -0.5476,-2.0437 0.4131,-0.7156 1.3281,-0.9608 2.0437,-0.5476 v 0 l 61.5724,35.5482 c 0.7156,0.4131 0.9607,1.3282 0.5476,2.0437 -0.4131,0.7156 -1.3281,0.9609 -2.0437,0.5477 z"
         stroke="none"
         id="path90" />
    </g>
    <g
       text-rendering="geometricPrecision"
       id="g91">
      <path
         clip-path="url(#33562466544-clipPath1)"
         d="m 472.2823,984.3812 v 0 l -61.5723,35.5483 c -0.7156,0.4132 -1.6306,0.1679 -2.0438,-0.5477 -0.4131,-0.7155 -0.1679,-1.6306 0.5477,-2.0437 v 0 l 61.5723,-35.5482 c 0.7156,-0.4132 1.6306,-0.168 2.0438,0.5476 0.4131,0.7155 0.1679,1.6306 -0.5477,2.0437 z"
         stroke="none"
         id="path91" />
    </g>
    <g
       text-rendering="geometricPrecision"
       id="g92">
      <path
         clip-path="url(#33562466544-clipPath1)"
         d="m 409.2138,1019.9294 v 0 l -61.5677,-35.5482 c -0.7156,-0.4132 -0.9607,-1.3282 -0.5476,-2.0438 0.4132,-0.7156 1.3282,-0.9607 2.0438,-0.5475 v 0 l 61.5677,35.5482 c 0.7156,0.4132 0.9607,1.3282 0.5476,2.0438 -0.4132,0.7156 -1.3282,0.9608 -2.0438,0.5475 z"
         stroke="none"
         id="path92" />
    </g>
    <g
       text-rendering="geometricPrecision"
       id="g93">
      <path
         clip-path="url(#33562466544-clipPath1)"
         d="m 349.1422,984.3812 v 0 l -61.5723,35.5483 c -0.7156,0.4132 -1.6306,0.1679 -2.0437,-0.5477 -0.4132,-0.7155 -0.168,-1.6306 0.5476,-2.0437 v 0 l 61.5723,-35.5482 c 0.7156,-0.4132 1.6306,-0.168 2.0438,0.5476 0.4131,0.7155 0.1679,1.6306 -0.5477,2.0437 z"
         stroke="none"
         id="path93" />
    </g>
    <g
       text-rendering="geometricPrecision"
       id="g94">
      <path
         clip-path="url(#33562466544-clipPath1)"
         d="m 286.0738,1019.9295 v 0 l -61.5724,-35.5483 c -0.7156,-0.4131 -0.9608,-1.3282 -0.5476,-2.0437 0.4131,-0.7156 1.3282,-0.9608 2.0438,-0.5476 v 0 l 61.5723,35.5482 c 0.7156,0.4131 0.9608,1.3282 0.5477,2.0437 -0.4132,0.7156 -1.3282,0.9609 -2.0438,0.5477 z"
         stroke="none"
         id="path94" />
    </g>
    <g
       text-rendering="geometricPrecision"
       id="g95">
      <path
         clip-path="url(#33562466544-clipPath1)"
         d="m 225.9976,984.3812 v 0 l -61.5724,35.5483 c -0.7156,0.4132 -1.6306,0.1679 -2.0437,-0.5477 -0.4132,-0.7155 -0.168,-1.6306 0.5476,-2.0437 v 0 l 61.5723,-35.5482 c 0.7156,-0.4132 1.6306,-0.168 2.0438,0.5476 0.4131,0.7155 0.168,1.6306 -0.5476,2.0437 z"
         stroke="none"
         id="path95" />
    </g>
    <g
       text-rendering="geometricPrecision"
       id="g96">
      <path
         clip-path="url(#33562466544-clipPath1)"
         d="m 162.9291,1019.9295 v 0 l -61.5724,-35.5483 c -0.7156,-0.4131 -0.9607,-1.3282 -0.5476,-2.0437 0.4131,-0.7156 1.3282,-0.9608 2.0438,-0.5476 v 0 l 61.5723,35.5482 c 0.7156,0.4131 0.9608,1.3282 0.5477,2.0437 -0.4132,0.7156 -1.3282,0.9609 -2.0438,0.5477 z"
         stroke="none"
         id="path96" />
    </g>
    <g
       text-rendering="geometricPrecision"
       id="g97">
      <path
         clip-path="url(#33562466544-clipPath1)"
         d="m 1241.7449,1004.3038 v 0 l 38.9956,-22.5144 c 0.7156,-0.4131 1.6306,-0.1679 2.0437,0.5476 0.4132,0.7156 0.1679,1.6307 -0.5476,2.0438 v 0 l -38.9955,22.5144 c -0.7156,0.4132 -1.6306,0.168 -2.0438,-0.5476 -0.4131,-0.7156 -0.168,-1.6306 0.5476,-2.0438 z"
         stroke="none"
         id="path97" />
    </g>
    <g
       text-rendering="geometricPrecision"
       id="g98">
      <path
         clip-path="url(#33562466544-clipPath1)"
         d="m 1282.2366,981.7894 v 0 l 61.5716,35.5479 c 0.7156,0.4131 0.9607,1.3281 0.5476,2.0437 -0.4132,0.7156 -1.3281,0.9608 -2.0438,0.5476 v 0 l -61.5715,-35.5478 c -0.7156,-0.4131 -0.9608,-1.3281 -0.5478,-2.0438 0.4133,-0.7155 1.3283,-0.9607 2.0439,-0.5476 z"
         stroke="none"
         id="path98" />
    </g>
    <g
       text-rendering="geometricPrecision"
       id="g99">
      <path
         clip-path="url(#33562466544-clipPath1)"
         d="m 1342.312,1017.3373 v 0 l 61.5712,-35.5487 c 0.7156,-0.4132 1.6306,-0.168 2.0438,0.5476 0.4131,0.7156 0.168,1.6306 -0.5476,2.0437 v 0 l -61.5712,35.5487 c -0.7155,0.4132 -1.6306,0.168 -2.0438,-0.5476 -0.4131,-0.7155 -0.168,-1.6306 0.5476,-2.0437 z"
         stroke="none"
         id="path99" />
    </g>
    <g
       text-rendering="geometricPrecision"
       id="g100">
      <path
         clip-path="url(#33562466544-clipPath1)"
         d="m 1403.1351,983.0843 v 0 -42.1295 c 0,-0.8263 0.6698,-1.4962 1.4961,-1.4962 0.8263,0 1.4962,0.6699 1.4962,1.4962 v 0 42.1295 c 0,0.8263 -0.6699,1.4961 -1.4962,1.4961 -0.8263,0 -1.4961,-0.6698 -1.4961,-1.4961 z"
         stroke="none"
         id="path100" />
    </g>
    <g
       text-rendering="geometricPrecision"
       id="g101">
      <path
         clip-path="url(#33562466544-clipPath1)"
         d="m 1346.2096,1030.436 -0.4192,-2.9923 h -5.4606 v 0 l -0.4192,2.9923 z m 2.1656,15.4601 -0.4191,-2.9923 v 0 h -9.7919 l -0.4192,2.9923 z m 2.1656,15.4601 -0.4191,-2.9922 h -14.1232 l -0.419,2.9922 h 7.4807 z"
         stroke="none"
         id="path101" />
    </g>
    <g
       text-rendering="geometricPrecision"
       id="g102">
      <path
         clip-path="url(#33562466544-clipPath1)"
         d="m 1321.1117,1104.129 v 0 l -38.8749,22.4444 c -0.7156,0.4132 -1.6306,0.1679 -2.0438,-0.5476 -0.4131,-0.7156 -0.168,-1.6307 0.5477,-2.0437 v 0 l 38.8749,-22.4445 c 0.7156,-0.4132 1.6306,-0.168 2.0437,0.5476 0.4132,0.7156 0.168,1.6306 -0.5476,2.0438 z"
         stroke="none"
         id="path102" />
    </g>
    <g
       text-rendering="geometricPrecision"
       id="g103">
      <path
         clip-path="url(#33562466544-clipPath1)"
         d="m 1289.4482,1121.5461 c 0,-0.8263 -0.6699,-1.4962 -1.4962,-1.4962 -0.8263,0 -1.4961,0.6699 -1.4961,1.4962 v 46.4549 c 0,0.8263 0.6698,1.4962 1.4961,1.4962 0.8263,0 1.4962,-0.6699 1.4962,-1.4962 z m -12.9266,0 c 0,-0.8263 -0.6699,-1.4962 -1.4962,-1.4962 -0.8263,0 -1.4961,0.6699 -1.4961,1.4962 v 46.4549 c 0,0.8263 0.6698,1.4962 1.4961,1.4962 0.8263,0 1.4962,-0.6699 1.4962,-1.4962 z"
         stroke="none"
         id="path103" />
    </g>
    <g
       text-rendering="geometricPrecision"
       id="g104">
      <path
         clip-path="url(#33562466544-clipPath1)"
         d="m 1280.7407,1126.5734 v 0 l -61.5714,-35.5483 c -0.7156,-0.413 -0.9608,-1.3281 -0.5476,-2.0437 0.4131,-0.7157 1.3281,-0.9608 2.0437,-0.5477 v 0 l 61.5714,35.5484 c 0.7156,0.413 0.9608,1.3281 0.5476,2.0437 -0.4131,0.7155 -1.3281,0.9608 -2.0437,0.5476 z"
         stroke="none"
         id="path104" />
    </g>
    <g
       text-rendering="geometricPrecision"
       id="g105">
      <path
         clip-path="url(#33562466544-clipPath1)"
         d="m 1220.6654,1091.0251 v 0 l -61.5714,35.5483 c -0.7156,0.4132 -1.6306,0.1679 -2.0437,-0.5476 -0.4132,-0.7156 -0.168,-1.6307 0.5476,-2.0437 v 0 l 61.5714,-35.5484 c 0.7156,-0.4131 1.6306,-0.168 2.0437,0.5477 0.4132,0.7156 0.168,1.6307 -0.5476,2.0437 z"
         stroke="none"
         id="path105" />
    </g>
    <g
       text-rendering="geometricPrecision"
       id="g106">
      <path
         clip-path="url(#33562466544-clipPath1)"
         d="m 1157.5979,1126.5734 v 0 l -61.5714,-35.5483 c -0.7156,-0.413 -0.9607,-1.3281 -0.5476,-2.0437 0.4132,-0.7157 1.3282,-0.9608 2.0438,-0.5477 v 0 l 61.5713,35.5484 c 0.7157,0.413 0.9608,1.3281 0.5477,2.0437 -0.4132,0.7155 -1.3282,0.9608 -2.0438,0.5476 z"
         stroke="none"
         id="path106" />
    </g>
    <g
       text-rendering="geometricPrecision"
       id="g107">
      <path
         clip-path="url(#33562466544-clipPath1)"
         d="m 1097.5227,1091.0251 v 0 l -61.5714,35.5483 c -0.7156,0.4132 -1.6306,0.1679 -2.0438,-0.5476 -0.4131,-0.7156 -0.168,-1.6307 0.5476,-2.0437 v 0 l 61.5714,-35.5484 c 0.7156,-0.4131 1.6306,-0.168 2.0438,0.5477 0.4131,0.7156 0.168,1.6307 -0.5476,2.0437 z"
         stroke="none"
         id="path107" />
    </g>
    <g
       text-rendering="geometricPrecision"
       id="g108">
      <path
         clip-path="url(#33562466544-clipPath1)"
         d="m 1034.4551,1126.5734 v 0 l -61.5714,-35.5483 c -0.7155,-0.413 -0.9607,-1.3281 -0.5476,-2.0437 0.4132,-0.7157 1.3282,-0.9608 2.0438,-0.5477 v 0 l 61.5714,35.5484 c 0.7156,0.413 0.9608,1.3281 0.5476,2.0437 -0.4131,0.7155 -1.3281,0.9608 -2.0438,0.5476 z"
         stroke="none"
         id="path108" />
    </g>
    <g
       text-rendering="geometricPrecision"
       id="g109">
      <path
         clip-path="url(#33562466544-clipPath1)"
         d="m 974.3799,1091.0251 v 0 l -61.5714,35.5483 c -0.7156,0.4132 -1.6306,0.1679 -2.0437,-0.5476 -0.4132,-0.7156 -0.168,-1.6307 0.5476,-2.0437 v 0 l 61.5713,-35.5484 c 0.7157,-0.4131 1.6306,-0.168 2.0438,0.5477 0.4131,0.7156 0.168,1.6307 -0.5476,2.0437 z"
         stroke="none"
         id="path109" />
    </g>
    <g
       text-rendering="geometricPrecision"
       id="g110">
      <path
         clip-path="url(#33562466544-clipPath1)"
         d="m 911.3124,1126.5734 v 0 l -61.5714,-35.5483 c -0.7156,-0.413 -0.9608,-1.3281 -0.5476,-2.0437 0.4131,-0.7157 1.3281,-0.9608 2.0437,-0.5477 v 0 l 61.5714,35.5484 c 0.7156,0.413 0.9608,1.3281 0.5476,2.0437 -0.4131,0.7155 -1.3281,0.9608 -2.0437,0.5476 z"
         stroke="none"
         id="path110" />
    </g>
    <g
       text-rendering="geometricPrecision"
       id="g111">
      <path
         clip-path="url(#33562466544-clipPath1)"
         d="m 851.2371,1091.0251 v 0 l -61.5713,35.5483 c -0.7157,0.4132 -1.6306,0.1679 -2.0438,-0.5476 -0.4131,-0.7156 -0.168,-1.6307 0.5476,-2.0437 v 0 l 61.5714,-35.5484 c 0.7156,-0.4131 1.6306,-0.168 2.0437,0.5477 0.4132,0.7156 0.168,1.6307 -0.5476,2.0437 z"
         stroke="none"
         id="path111" />
    </g>
    <g
       text-rendering="geometricPrecision"
       id="g112">
      <path
         clip-path="url(#33562466544-clipPath1)"
         d="m 788.1696,1126.5734 v 0 l -61.5714,-35.5483 c -0.7156,-0.413 -0.9607,-1.3281 -0.5476,-2.0437 0.4131,-0.7157 1.3282,-0.9608 2.0438,-0.5477 v 0 l 61.5714,35.5484 c 0.7155,0.413 0.9607,1.3281 0.5476,2.0437 -0.4132,0.7155 -1.3282,0.9608 -2.0438,0.5476 z"
         stroke="none"
         id="path112" />
    </g>
    <g
       text-rendering="geometricPrecision"
       id="g113">
      <path
         clip-path="url(#33562466544-clipPath1)"
         d="m 728.0944,1091.0251 v 0 l -61.5714,35.5483 c -0.7156,0.4132 -1.6307,0.1679 -2.0438,-0.5476 -0.4132,-0.7156 -0.1679,-1.6307 0.5477,-2.0437 v 0 l 61.5713,-35.5484 c 0.7156,-0.4131 1.6306,-0.168 2.0438,0.5477 0.4131,0.7156 0.1679,1.6307 -0.5476,2.0437 z"
         stroke="none"
         id="path113" />
    </g>
    <g
       text-rendering="geometricPrecision"
       id="g114">
      <path
         clip-path="url(#33562466544-clipPath1)"
         d="m 665.0269,1126.5734 v 0 l -61.5715,-35.5483 c -0.7155,-0.413 -0.9607,-1.3281 -0.5476,-2.0437 0.4132,-0.7157 1.3282,-0.9608 2.0438,-0.5477 v 0 l 61.5714,35.5484 c 0.7156,0.413 0.9608,1.3281 0.5476,2.0437 -0.4131,0.7155 -1.3282,0.9608 -2.0437,0.5476 z"
         stroke="none"
         id="path114" />
    </g>
    <g
       text-rendering="geometricPrecision"
       id="g115">
      <path
         clip-path="url(#33562466544-clipPath1)"
         d="m 604.9516,1091.0251 v 0 l -61.5714,35.5483 c -0.7156,0.4132 -1.6306,0.1679 -2.0438,-0.5476 -0.4131,-0.7156 -0.1679,-1.6307 0.5477,-2.0437 v 0 l 61.5713,-35.5484 c 0.7156,-0.4131 1.6307,-0.168 2.0438,0.5477 0.4132,0.7156 0.168,1.6307 -0.5476,2.0437 z"
         stroke="none"
         id="path115" />
    </g>
    <g
       text-rendering="geometricPrecision"
       id="g116">
      <path
         clip-path="url(#33562466544-clipPath1)"
         d="m 541.8841,1126.5734 v 0 l -61.5714,-35.5483 c -0.7156,-0.413 -0.9608,-1.3281 -0.5476,-2.0437 0.4131,-0.7157 1.3281,-0.9608 2.0437,-0.5477 v 0 l 61.5714,35.5484 c 0.7156,0.413 0.9608,1.3281 0.5477,2.0437 -0.4132,0.7155 -1.3282,0.9608 -2.0438,0.5476 z"
         stroke="none"
         id="path116" />
    </g>
    <g
       text-rendering="geometricPrecision"
       id="g117">
      <path
         clip-path="url(#33562466544-clipPath1)"
         d="m 481.8088,1091.0251 v 0 l -61.5713,35.5483 c -0.7156,0.4132 -1.6307,0.1679 -2.0438,-0.5476 -0.4132,-0.7156 -0.168,-1.6307 0.5476,-2.0437 v 0 l 61.5714,-35.5484 c 0.7156,-0.4131 1.6306,-0.168 2.0437,0.5477 0.4132,0.7156 0.168,1.6307 -0.5476,2.0437 z"
         stroke="none"
         id="path117" />
    </g>
    <g
       text-rendering="geometricPrecision"
       id="g118">
      <path
         clip-path="url(#33562466544-clipPath1)"
         d="m 418.7413,1126.5734 v 0 l -61.5714,-35.5483 c -0.7156,-0.413 -0.9607,-1.3281 -0.5476,-2.0437 0.4132,-0.7157 1.3282,-0.9608 2.0438,-0.5477 v 0 l 61.5714,35.5484 c 0.7155,0.413 0.9607,1.3281 0.5476,2.0437 -0.4132,0.7155 -1.3282,0.9608 -2.0438,0.5476 z"
         stroke="none"
         id="path118" />
    </g>
    <g
       text-rendering="geometricPrecision"
       id="g119">
      <path
         clip-path="url(#33562466544-clipPath1)"
         d="m 358.6661,1091.0251 v 0 l -61.5714,35.5483 c -0.7156,0.4132 -1.6306,0.1679 -2.0438,-0.5476 -0.4131,-0.7156 -0.1679,-1.6307 0.5476,-2.0437 v 0 l 61.5714,-35.5484 c 0.7156,-0.4131 1.6306,-0.168 2.0438,0.5477 0.4131,0.7156 0.168,1.6307 -0.5476,2.0437 z"
         stroke="none"
         id="path119" />
    </g>
    <g
       text-rendering="geometricPrecision"
       id="g120">
      <path
         clip-path="url(#33562466544-clipPath1)"
         d="m 295.5985,1126.5734 v 0 l -61.5713,-35.5483 c -0.7156,-0.413 -0.9608,-1.3281 -0.5477,-2.0437 0.4132,-0.7157 1.3282,-0.9608 2.0438,-0.5477 v 0 l 61.5714,35.5484 c 0.7156,0.413 0.9608,1.3281 0.5476,2.0437 -0.4131,0.7155 -1.3282,0.9608 -2.0438,0.5476 z"
         stroke="none"
         id="path120" />
    </g>
    <g
       text-rendering="geometricPrecision"
       id="g121">
      <path
         clip-path="url(#33562466544-clipPath1)"
         d="m 1426.4589,897.658 v 0 l 38.9957,-22.5142 c 0.7156,-0.4131 1.6306,-0.168 2.0437,0.5477 0.4132,0.7155 0.168,1.6306 -0.5476,2.0437 v 0 l -38.9956,22.5142 c -0.7157,0.4131 -1.6306,0.168 -2.0438,-0.5476 -0.4131,-0.7157 -0.168,-1.6306 0.5476,-2.0438 z"
         stroke="none"
         id="path121" />
    </g>
    <g
       text-rendering="geometricPrecision"
       id="g122">
      <path
         clip-path="url(#33562466544-clipPath1)"
         d="m 1464.7065,876.4395 v 0 -71.0965 c 0,-0.8263 0.6698,-1.4961 1.4961,-1.4961 0.8263,0 1.4961,0.6698 1.4961,1.4961 v 0 71.0965 c 0,0.8263 -0.6698,1.4962 -1.4961,1.4962 -0.8263,0 -1.4961,-0.6699 -1.4961,-1.4962 z"
         stroke="none"
         id="path122" />
    </g>
    <g
       text-rendering="geometricPrecision"
       id="g123">
      <path
         clip-path="url(#33562466544-clipPath1)"
         d="m 1466.9507,867.6806 c -0.7156,-0.4131 -1.6306,-0.168 -2.0437,0.5477 -0.4132,0.7155 -0.168,1.6306 0.5476,2.0437 l 41.4905,23.9545 c 0.7155,0.4131 1.6306,0.168 2.0437,-0.5476 0.4132,-0.7156 0.1679,-1.6306 -0.5476,-2.0438 z m -6.4633,11.1948 c -0.7155,-0.4131 -1.6306,-0.1679 -2.0438,0.5476 -0.4131,0.7156 -0.168,1.6306 0.5476,2.0438 l 41.4905,23.9545 c 0.7156,0.4132 1.6306,0.168 2.0438,-0.5476 0.4131,-0.7156 0.168,-1.6306 -0.5477,-2.0437 z"
         stroke="none"
         id="path123" />
    </g>
    <g
       text-rendering="geometricPrecision"
       id="g124">
      <path
         clip-path="url(#33562466544-clipPath1)"
         d="m 1465.4546,806.6387 v 0 l -61.5714,-35.5482 c -0.7156,-0.4132 -0.9608,-1.3282 -0.5476,-2.0438 0.4131,-0.7156 1.3281,-0.9608 2.0438,-0.5476 v 0 l 61.5713,35.5482 c 0.7156,0.4131 0.9608,1.3282 0.5476,2.0438 -0.4131,0.7155 -1.3281,0.9607 -2.0437,0.5476 z"
         stroke="none"
         id="path124" />
    </g>
    <g
       text-rendering="geometricPrecision"
       id="g125">
      <path
         clip-path="url(#33562466544-clipPath1)"
         d="m 1405.3794,771.0905 v 0 l -61.5714,35.5482 c -0.7156,0.4131 -1.6306,0.1679 -2.0438,-0.5476 -0.4131,-0.7156 -0.168,-1.6307 0.5476,-2.0438 v 0 l 61.5714,-35.5482 c 0.7156,-0.4132 1.6306,-0.168 2.0438,0.5476 0.4131,0.7156 0.168,1.6306 -0.5476,2.0438 z"
         stroke="none"
         id="path125" />
    </g>
    <g
       text-rendering="geometricPrecision"
       id="g126">
      <path
         clip-path="url(#33562466544-clipPath1)"
         d="m 1342.3118,806.6387 v 0 l -61.5713,-35.5482 c -0.7157,-0.4132 -0.9608,-1.3282 -0.5478,-2.0438 0.4133,-0.7156 1.3283,-0.9608 2.0439,-0.5476 v 0 l 61.5714,35.5482 c 0.7156,0.4131 0.9607,1.3282 0.5476,2.0438 -0.4132,0.7155 -1.3283,0.9607 -2.0438,0.5476 z"
         stroke="none"
         id="path126" />
    </g>
    <g
       text-rendering="geometricPrecision"
       id="g127">
      <path
         clip-path="url(#33562466544-clipPath1)"
         d="m 1282.2366,771.0905 v 0 l -61.5714,35.5482 c -0.7156,0.4131 -1.6307,0.1679 -2.0437,-0.5476 -0.4132,-0.7156 -0.168,-1.6307 0.5476,-2.0438 v 0 l 61.5714,-35.5482 c 0.7156,-0.4132 1.6306,-0.168 2.0437,0.5476 0.4132,0.7156 0.1679,1.6306 -0.5476,2.0438 z"
         stroke="none"
         id="path127" />
    </g>
    <g
       text-rendering="geometricPrecision"
       id="g128">
      <path
         clip-path="url(#33562466544-clipPath1)"
         d="m 1219.1691,806.6387 v 0 l -61.5714,-35.5482 c -0.7156,-0.4132 -0.9609,-1.3282 -0.5477,-2.0438 0.4131,-0.7156 1.3282,-0.9608 2.0438,-0.5476 v 0 l 61.5714,35.5482 c 0.7155,0.4131 0.9608,1.3282 0.5476,2.0438 -0.4131,0.7155 -1.3282,0.9607 -2.0437,0.5476 z"
         stroke="none"
         id="path128" />
    </g>
    <g
       text-rendering="geometricPrecision"
       id="g129">
      <path
         clip-path="url(#33562466544-clipPath1)"
         d="m 1159.0938,771.0905 v 0 l -61.5713,35.5482 c -0.7156,0.4131 -1.6307,0.1679 -2.0439,-0.5476 -0.413,-0.7156 -0.1679,-1.6307 0.5476,-2.0438 v 0 l 61.5715,-35.5482 c 0.7155,-0.4132 1.6306,-0.168 2.0438,0.5476 0.4131,0.7156 0.1679,1.6306 -0.5477,2.0438 z"
         stroke="none"
         id="path129" />
    </g>
    <g
       text-rendering="geometricPrecision"
       id="g130">
      <path
         clip-path="url(#33562466544-clipPath1)"
         d="m 1096.0262,806.6387 v 0 l -61.5712,-35.5482 c -0.7157,-0.4132 -0.9609,-1.3282 -0.5478,-2.0438 0.4132,-0.7156 1.3283,-0.9608 2.0438,-0.5476 v 0 l 61.5715,35.5482 c 0.7155,0.4131 0.9607,1.3282 0.5476,2.0438 -0.4132,0.7155 -1.3283,0.9607 -2.0439,0.5476 z"
         stroke="none"
         id="path130" />
    </g>
    <g
       text-rendering="geometricPrecision"
       id="g131">
      <path
         clip-path="url(#33562466544-clipPath1)"
         d="m 1035.951,771.0905 v 0 l -61.5714,35.5482 c -0.7155,0.4131 -1.6306,0.1679 -2.0437,-0.5476 -0.4132,-0.7156 -0.168,-1.6307 0.5476,-2.0438 v 0 l 61.5715,-35.5482 c 0.7155,-0.4132 1.6306,-0.168 2.0437,0.5476 0.4132,0.7156 0.1679,1.6306 -0.5477,2.0438 z"
         stroke="none"
         id="path131" />
    </g>
    <g
       text-rendering="geometricPrecision"
       id="g132">
      <path
         clip-path="url(#33562466544-clipPath1)"
         d="m 972.8835,806.6387 v 0 l -61.5714,-35.5482 c -0.7155,-0.4132 -0.9607,-1.3282 -0.5476,-2.0438 0.4132,-0.7156 1.3282,-0.9608 2.0438,-0.5476 v 0 l 61.5713,35.5482 c 0.7157,0.4131 0.9609,1.3282 0.5477,2.0438 -0.4131,0.7155 -1.3282,0.9607 -2.0438,0.5476 z"
         stroke="none"
         id="path132" />
    </g>
    <g
       text-rendering="geometricPrecision"
       id="g133">
      <path
         clip-path="url(#33562466544-clipPath1)"
         d="m 912.8083,771.0905 v 0 l -61.5714,35.5482 c -0.7156,0.4131 -1.6306,0.1679 -2.0438,-0.5476 -0.4131,-0.7156 -0.168,-1.6307 0.5476,-2.0438 v 0 l 61.5714,-35.5482 c 0.7156,-0.4132 1.6306,-0.168 2.0438,0.5476 0.4131,0.7156 0.168,1.6306 -0.5476,2.0438 z"
         stroke="none"
         id="path133" />
    </g>
    <g
       text-rendering="geometricPrecision"
       id="g134">
      <path
         clip-path="url(#33562466544-clipPath1)"
         d="m 849.7407,806.6387 v 0 l -61.5713,-35.5482 c -0.7156,-0.4132 -0.9608,-1.3282 -0.5476,-2.0438 0.4131,-0.7156 1.3281,-0.9608 2.0437,-0.5476 v 0 l 61.5714,35.5482 c 0.7156,0.4131 0.9607,1.3282 0.5476,2.0438 -0.4132,0.7155 -1.3281,0.9607 -2.0438,0.5476 z"
         stroke="none"
         id="path134" />
    </g>
    <g
       text-rendering="geometricPrecision"
       id="g135">
      <path
         clip-path="url(#33562466544-clipPath1)"
         d="m 789.6655,771.0905 v 0 l -61.5714,35.5482 c -0.7156,0.4131 -1.6306,0.1679 -2.0437,-0.5476 -0.4132,-0.7156 -0.168,-1.6307 0.5476,-2.0438 v 0 l 61.5714,-35.5482 c 0.7155,-0.4132 1.6306,-0.168 2.0437,0.5476 0.4132,0.7156 0.168,1.6306 -0.5476,2.0438 z"
         stroke="none"
         id="path135" />
    </g>
    <g
       text-rendering="geometricPrecision"
       id="g136">
      <path
         clip-path="url(#33562466544-clipPath1)"
         d="m 726.598,806.6387 v 0 l -61.5714,-35.5482 c -0.7156,-0.4132 -0.9607,-1.3282 -0.5476,-2.0438 0.4132,-0.7156 1.3281,-0.9608 2.0438,-0.5476 v 0 l 61.5713,35.5482 c 0.7156,0.4131 0.9608,1.3282 0.5476,2.0438 -0.4131,0.7155 -1.3281,0.9607 -2.0437,0.5476 z"
         stroke="none"
         id="path136" />
    </g>
    <g
       text-rendering="geometricPrecision"
       id="g137">
      <path
         clip-path="url(#33562466544-clipPath1)"
         d="m 666.5228,771.0905 v 0 l -61.5714,35.5482 c -0.7156,0.4131 -1.6307,0.1679 -2.0438,-0.5476 -0.4132,-0.7156 -0.168,-1.6307 0.5476,-2.0438 v 0 l 61.5714,-35.5482 c 0.7156,-0.4132 1.6306,-0.168 2.0438,0.5476 0.4131,0.7156 0.1679,1.6306 -0.5476,2.0438 z"
         stroke="none"
         id="path137" />
    </g>
    <g
       font-family="Arial"
       font-size="49px"
       text-rendering="geometricPrecision"
       transform="translate(1201.1517,990.1338)"
       id="g196">
      <text
         clip-path="url(#33562466579-clipPath1)"
         stroke="none"
         x="0"
         xml:space="preserve"
         y="46"
         id="text195">O</text>
    </g>
    <g
       font-family="Arial"
       font-size="49px"
       text-rendering="geometricPrecision"
       transform="translate(1139.5794,883.489)"
       id="g197">
      <text
         clip-path="url(#33562466554-clipPath1)"
         stroke="none"
         x="0"
         xml:space="preserve"
         y="46"
         id="text196">O</text>
    </g>
    <g
       font-family="Arial"
       font-size="49px"
       text-rendering="geometricPrecision"
       transform="translate(1385.8656,883.4878)"
       id="g198">
      <text
         clip-path="url(#33562466593-clipPath1)"
         stroke="none"
         x="0"
         xml:space="preserve"
         y="46"
         id="text197">O</text>
    </g>
    <g
       font-family="Arial"
       font-size="49px"
       text-rendering="geometricPrecision"
       transform="translate(1324.2945,1061.2295)"
       id="g199">
      <text
         clip-path="url(#33562466807-clipPath1)"
         stroke="none"
         x="0"
         xml:space="preserve"
         y="46"
         id="text198">O</text>
    </g>
    <g
       font-family="Arial"
       font-size="49px"
       text-rendering="geometricPrecision"
       transform="translate(1262.7231,1167.8742)"
       id="g200">
      <text
         clip-path="url(#33562466206-clipPath1)"
         stroke="none"
         x="0"
         xml:space="preserve"
         y="46"
         id="text199">O</text>
    </g>
    <g
       font-family="Arial"
       font-size="49px"
       text-rendering="geometricPrecision"
       transform="translate(1509.0084,883.4878)"
       id="g201">
      <text
         clip-path="url(#33562466381-clipPath1)"
         stroke="none"
         x="0"
         xml:space="preserve"
         y="46"
         id="text200">O</text>
    </g>
  </g>
  <g
     id="g215"
     transform="translate(0,126)">
    <g
       text-rendering="geometricPrecision"
       id="g138">
      <path
         clip-path="url(#33562466544-clipPath1)"
         d="m 875.7626,1453.0122 v 0 l 61.5723,-35.5482 c 0.7156,-0.4131 1.6306,-0.168 2.0438,0.5476 0.4131,0.7157 0.1679,1.6306 -0.5476,2.0438 v 0 l -61.5724,35.5482 c -0.7156,0.4132 -1.6306,0.168 -2.0437,-0.5476 -0.4132,-0.7155 -0.168,-1.6306 0.5476,-2.0438 z"
         stroke="none"
         id="path138" />
    </g>
    <g
       text-rendering="geometricPrecision"
       id="g139">
      <path
         clip-path="url(#33562466544-clipPath1)"
         d="m 938.8311,1417.464 v 0 l 38.9965,22.5144 c 0.7156,0.4131 0.9609,1.3281 0.5477,2.0437 -0.4131,0.7156 -1.3282,0.9608 -2.0438,0.5476 v 0 l -38.9966,-22.5143 c -0.7156,-0.4132 -0.9608,-1.3281 -0.5476,-2.0438 0.4131,-0.7156 1.3282,-0.9607 2.0438,-0.5476 z"
         stroke="none"
         id="path139" />
    </g>
    <g
       text-rendering="geometricPrecision"
       id="g140">
      <path
         clip-path="url(#33562466544-clipPath1)"
         d="m 930.1235,1422.4912 c 0,0.8263 0.6699,1.4962 1.4962,1.4962 0.8263,0 1.4961,-0.6699 1.4961,-1.4962 v -45.8611 c 0,-0.8263 -0.6698,-1.4961 -1.4961,-1.4961 -0.8263,0 -1.4962,0.6698 -1.4962,1.4961 z m 12.9267,0 c 0,0.8263 0.6698,1.4962 1.4961,1.4962 0.8263,0 1.4961,-0.6699 1.4961,-1.4962 v -45.8611 c 0,-0.8263 -0.6698,-1.4961 -1.4961,-1.4961 -0.8263,0 -1.4961,0.6698 -1.4961,1.4961 z"
         stroke="none"
         id="path140" />
    </g>
    <g
       text-rendering="geometricPrecision"
       id="g141">
      <path
         clip-path="url(#33562466544-clipPath1)"
         d="m 875.7625,1455.6036 v 0 l -61.5677,-35.5482 c -0.7156,-0.4132 -0.9607,-1.3282 -0.5476,-2.0438 0.4132,-0.7156 1.3282,-0.9607 2.0438,-0.5476 v 0 l 61.5677,35.5483 c 0.7156,0.4131 0.9608,1.3282 0.5476,2.0437 -0.4132,0.7156 -1.3282,0.9608 -2.0438,0.5476 z"
         stroke="none"
         id="path141" />
    </g>
    <g
       text-rendering="geometricPrecision"
       id="g142">
      <path
         clip-path="url(#33562466544-clipPath1)"
         d="m 815.691,1420.0554 v 0 l -61.5723,35.5482 c -0.7157,0.4132 -1.6307,0.168 -2.0438,-0.5476 -0.4132,-0.7155 -0.168,-1.6306 0.5476,-2.0438 v 0 l 61.5723,-35.5482 c 0.7157,-0.4131 1.6306,-0.168 2.0438,0.5476 0.4131,0.7157 0.168,1.6306 -0.5476,2.0438 z"
         stroke="none"
         id="path142" />
    </g>
    <g
       text-rendering="geometricPrecision"
       id="g143">
      <path
         clip-path="url(#33562466544-clipPath1)"
         d="m 752.6225,1455.6036 v 0 l -61.5723,-35.5482 c -0.7157,-0.4132 -0.9608,-1.3281 -0.5477,-2.0438 0.4131,-0.7156 1.3282,-0.9607 2.0438,-0.5476 v 0 l 61.5724,35.5482 c 0.7155,0.4132 0.9607,1.3283 0.5476,2.0438 -0.4132,0.7156 -1.3282,0.9608 -2.0438,0.5476 z"
         stroke="none"
         id="path143" />
    </g>
    <g
       text-rendering="geometricPrecision"
       id="g144">
      <path
         clip-path="url(#33562466544-clipPath1)"
         d="m 692.5463,1420.0554 v 0 l -61.5724,35.5482 c -0.7155,0.4132 -1.6306,0.168 -2.0437,-0.5476 -0.4132,-0.7155 -0.168,-1.6306 0.5476,-2.0438 v 0 l 61.5724,-35.5482 c 0.7155,-0.4131 1.6306,-0.168 2.0437,0.5476 0.4132,0.7157 0.168,1.6306 -0.5476,2.0438 z"
         stroke="none"
         id="path144" />
    </g>
    <g
       text-rendering="geometricPrecision"
       id="g145">
      <path
         clip-path="url(#33562466544-clipPath1)"
         d="m 629.4778,1455.6036 v 0 l -61.5723,-35.5482 c -0.7156,-0.4132 -0.9608,-1.3281 -0.5477,-2.0438 0.4132,-0.7156 1.3282,-0.9607 2.0438,-0.5476 v 0 l 61.5723,35.5482 c 0.7156,0.4132 0.9608,1.3283 0.5476,2.0438 -0.4131,0.7156 -1.3281,0.9608 -2.0437,0.5476 z"
         stroke="none"
         id="path145" />
    </g>
    <g
       text-rendering="geometricPrecision"
       id="g146">
      <path
         clip-path="url(#33562466544-clipPath1)"
         d="m 569.4016,1420.0554 v 0 l -61.5677,35.5482 c -0.7156,0.4132 -1.6306,0.168 -2.0438,-0.5476 -0.4131,-0.7155 -0.168,-1.6306 0.5476,-2.0437 v 0 l 61.5677,-35.5483 c 0.7156,-0.4131 1.6306,-0.168 2.0438,0.5476 0.4132,0.7156 0.168,1.6306 -0.5476,2.0438 z"
         stroke="none"
         id="path146" />
    </g>
    <g
       text-rendering="geometricPrecision"
       id="g147">
      <path
         clip-path="url(#33562466544-clipPath1)"
         d="m 506.3377,1455.6036 v 0 l -61.5723,-35.5482 c -0.7156,-0.4132 -0.9608,-1.3281 -0.5477,-2.0438 0.4132,-0.7156 1.3282,-0.9607 2.0438,-0.5476 v 0 l 61.5724,35.5482 c 0.7155,0.4132 0.9607,1.3283 0.5476,2.0438 -0.4131,0.7156 -1.3282,0.9608 -2.0438,0.5476 z"
         stroke="none"
         id="path147" />
    </g>
    <g
       text-rendering="geometricPrecision"
       id="g148">
      <path
         clip-path="url(#33562466544-clipPath1)"
         d="m 1021.4824,1439.9771 v 0 l 38.9971,-22.5176 c 0.7156,-0.4132 1.6306,-0.1681 2.0438,0.5475 0.4132,0.7155 0.1681,1.6306 -0.5475,2.0438 v 0 l -38.9971,22.5176 c -0.7156,0.413 -1.6306,0.1679 -2.0438,-0.5476 -0.4132,-0.7156 -0.1681,-1.6307 0.5475,-2.0437 z"
         stroke="none"
         id="path148" />
    </g>
    <g
       text-rendering="geometricPrecision"
       id="g149">
      <path
         clip-path="url(#33562466544-clipPath1)"
         d="m 1061.9758,1417.4594 v 0 l 61.5677,35.5483 c 0.7157,0.4131 0.9608,1.3281 0.5476,2.0437 -0.4131,0.7156 -1.3282,0.9608 -2.0437,0.5476 v 0 l -61.5678,-35.5482 c -0.7156,-0.4132 -0.9608,-1.3283 -0.5476,-2.0438 0.4132,-0.7156 1.3283,-0.9607 2.0438,-0.5476 z"
         stroke="none"
         id="path149" />
    </g>
    <g
       text-rendering="geometricPrecision"
       id="g150">
      <path
         clip-path="url(#33562466544-clipPath1)"
         d="m 1122.0474,1453.0077 v 0 l 61.5724,-35.5483 c 0.7155,-0.4131 1.6306,-0.168 2.0437,0.5477 0.4132,0.7156 0.1679,1.6306 -0.5477,2.0437 v 0 l -61.5723,35.5482 c -0.7156,0.4132 -1.6307,0.168 -2.0437,-0.5476 -0.4133,-0.7156 -0.168,-1.6306 0.5476,-2.0437 z"
         stroke="none"
         id="path150" />
    </g>
    <g
       text-rendering="geometricPrecision"
       id="g151">
      <path
         clip-path="url(#33562466544-clipPath1)"
         d="m 1125.9449,1466.1064 -0.4191,-2.9923 h -5.4607 l -0.4192,2.9923 v 0 z m 2.1656,15.4601 -0.4191,-2.9923 v 0 h -9.792 v 0 l -0.4191,2.9923 v 0 z m 2.1656,15.4601 -0.4192,-2.9923 h -14.123 l -0.4192,2.9923 h 7.4807 z"
         stroke="none"
         id="path151" />
    </g>
    <g
       text-rendering="geometricPrecision"
       id="g152">
      <path
         clip-path="url(#33562466544-clipPath1)"
         d="m 1100.847,1539.8 v 0 l -38.8712,22.4438 c -0.7155,0.4132 -1.6306,0.1679 -2.0438,-0.5476 -0.4132,-0.7156 -0.168,-1.6306 0.5476,-2.0437 v 0 l 38.8712,-22.4438 c 0.7156,-0.4132 1.6306,-0.1679 2.0439,0.5476 0.4132,0.7156 0.1679,1.6307 -0.5477,2.0437 z"
         stroke="none"
         id="path152" />
    </g>
    <g
       text-rendering="geometricPrecision"
       id="g153">
      <path
         clip-path="url(#33562466544-clipPath1)"
         d="m 1069.1871,1557.2163 c 0,-0.8263 -0.6698,-1.4962 -1.4961,-1.4962 -0.8263,0 -1.4962,0.6699 -1.4962,1.4962 v 46.4551 c 0,0.8263 0.6699,1.4961 1.4962,1.4961 0.8263,0 1.4961,-0.6698 1.4961,-1.4961 z m -12.9266,3e-4 c 0,-0.8263 -0.6698,-1.4961 -1.4961,-1.4961 -0.8263,0 -1.4962,0.6698 -1.4962,1.4961 v 46.4548 c 0,0.8263 0.6699,1.4961 1.4962,1.4961 0.8263,0 1.4961,-0.6698 1.4961,-1.4961 z"
         stroke="none"
         id="path153" />
    </g>
    <g
       text-rendering="geometricPrecision"
       id="g154">
      <path
         clip-path="url(#33562466544-clipPath1)"
         d="m 1060.4796,1562.2438 v 0 l -61.5723,-35.5482 c -0.7156,-0.4133 -0.9608,-1.3282 -0.5477,-2.0439 0.4132,-0.7155 1.3282,-0.9607 2.0438,-0.5476 v 0 l 61.5723,35.5482 c 0.7156,0.4133 0.9608,1.3283 0.5477,2.0439 -0.4132,0.7155 -1.3282,0.9608 -2.0438,0.5476 z"
         stroke="none"
         id="path154" />
    </g>
    <g
       text-rendering="geometricPrecision"
       id="g155">
      <path
         clip-path="url(#33562466544-clipPath1)"
         d="m 1000.4034,1526.6956 v 0 l -61.5723,35.5482 c -0.7156,0.4132 -1.6307,0.1679 -2.0438,-0.5476 -0.4132,-0.7156 -0.168,-1.6306 0.5476,-2.0439 v 0 l 61.5724,-35.5482 c 0.7156,-0.4131 1.6306,-0.1679 2.0437,0.5476 0.4132,0.7157 0.168,1.6306 -0.5476,2.0439 z"
         stroke="none"
         id="path155" />
    </g>
    <g
       text-rendering="geometricPrecision"
       id="g156">
      <path
         clip-path="url(#33562466544-clipPath1)"
         d="m 937.3349,1562.2438 v 0 l -61.5723,-35.5482 c -0.7156,-0.4133 -0.9608,-1.3282 -0.5476,-2.0439 0.4131,-0.7155 1.3281,-0.9607 2.0437,-0.5476 v 0 l 61.5724,35.5482 c 0.7155,0.4133 0.9607,1.3283 0.5476,2.0439 -0.4132,0.7155 -1.3282,0.9608 -2.0438,0.5476 z"
         stroke="none"
         id="path156" />
    </g>
    <g
       text-rendering="geometricPrecision"
       id="g157">
      <path
         clip-path="url(#33562466544-clipPath1)"
         d="m 877.2587,1526.6956 v 0 l -61.5724,35.5482 c -0.7155,0.4132 -1.6306,0.1679 -2.0437,-0.5476 -0.4132,-0.7156 -0.168,-1.6306 0.5476,-2.0439 v 0 l 61.5724,-35.5482 c 0.7155,-0.4131 1.6306,-0.1679 2.0437,0.5476 0.4132,0.7157 0.168,1.6306 -0.5476,2.0439 z"
         stroke="none"
         id="path157" />
    </g>
    <g
       text-rendering="geometricPrecision"
       id="g158">
      <path
         clip-path="url(#33562466544-clipPath1)"
         d="m 814.1902,1562.2438 v 0 l -61.5678,-35.5482 c -0.7155,-0.4133 -0.9607,-1.3283 -0.5475,-2.0439 0.4131,-0.7155 1.3282,-0.9607 2.0438,-0.5476 v 0 l 61.5677,35.5484 c 0.7156,0.4131 0.9608,1.3281 0.5475,2.0437 -0.4131,0.7155 -1.3281,0.9608 -2.0437,0.5476 z"
         stroke="none"
         id="path158" />
    </g>
    <g
       text-rendering="geometricPrecision"
       id="g159">
      <path
         clip-path="url(#33562466544-clipPath1)"
         d="m 754.1187,1526.6956 v 0 l -61.5724,35.5482 c -0.7156,0.4132 -1.6307,0.1679 -2.0438,-0.5476 -0.4131,-0.7156 -0.168,-1.6306 0.5477,-2.0439 v 0 l 61.5723,-35.5482 c 0.7156,-0.4131 1.6306,-0.1679 2.0438,0.5476 0.4131,0.7157 0.1679,1.6306 -0.5476,2.0439 z"
         stroke="none"
         id="path159" />
    </g>
    <g
       text-rendering="geometricPrecision"
       id="g160">
      <path
         clip-path="url(#33562466544-clipPath1)"
         d="m 691.0502,1562.2438 v 0 l -61.5724,-35.5482 c -0.7156,-0.4133 -0.9608,-1.3282 -0.5476,-2.0439 0.4131,-0.7155 1.3282,-0.9607 2.0437,-0.5476 v 0 l 61.5724,35.5482 c 0.7156,0.4133 0.9608,1.3283 0.5476,2.0439 -0.4131,0.7155 -1.3282,0.9608 -2.0437,0.5476 z"
         stroke="none"
         id="path160" />
    </g>
    <g
       text-rendering="geometricPrecision"
       id="g161">
      <path
         clip-path="url(#33562466544-clipPath1)"
         d="m 630.9739,1526.6956 v 0 l -61.5723,35.5482 c -0.7156,0.4132 -1.6306,0.1679 -2.0438,-0.5476 -0.4131,-0.7156 -0.1679,-1.6306 0.5477,-2.0439 v 0 l 61.5723,-35.5482 c 0.7156,-0.4131 1.6306,-0.1679 2.0437,0.5476 0.4132,0.7157 0.168,1.6306 -0.5476,2.0439 z"
         stroke="none"
         id="path161" />
    </g>
    <g
       text-rendering="geometricPrecision"
       id="g162">
      <path
         clip-path="url(#33562466544-clipPath1)"
         d="m 567.9054,1562.2438 v 0 l -61.5677,-35.5482 c -0.7156,-0.4133 -0.9607,-1.3283 -0.5476,-2.0439 0.4132,-0.7155 1.3282,-0.9607 2.0438,-0.5476 v 0 l 61.5677,35.5484 c 0.7156,0.4131 0.9608,1.3281 0.5476,2.0437 -0.4132,0.7155 -1.3282,0.9608 -2.0438,0.5476 z"
         stroke="none"
         id="path162" />
    </g>
    <g
       text-rendering="geometricPrecision"
       id="g163">
      <path
         clip-path="url(#33562466544-clipPath1)"
         d="m 507.8339,1526.6956 v 0 l -61.5724,35.5482 c -0.7156,0.4132 -1.6306,0.1679 -2.0438,-0.5476 -0.4131,-0.7156 -0.1679,-1.6306 0.5477,-2.0439 v 0 l 61.5723,-35.5482 c 0.7156,-0.4131 1.6307,-0.1679 2.0438,0.5476 0.4131,0.7157 0.1679,1.6306 -0.5476,2.0439 z"
         stroke="none"
         id="path163" />
    </g>
    <g
       text-rendering="geometricPrecision"
       id="g164">
      <path
         clip-path="url(#33562466544-clipPath1)"
         d="m 444.7654,1562.2438 v 0 l -61.5723,-35.5482 c -0.7157,-0.4133 -0.9608,-1.3282 -0.5477,-2.0439 0.4131,-0.7155 1.3282,-0.9607 2.0437,-0.5476 v 0 l 61.5724,35.5482 c 0.7156,0.4133 0.9608,1.3283 0.5476,2.0439 -0.4131,0.7155 -1.3281,0.9608 -2.0437,0.5476 z"
         stroke="none"
         id="path164" />
    </g>
    <g
       text-rendering="geometricPrecision"
       id="g165">
      <path
         clip-path="url(#33562466544-clipPath1)"
         d="m 384.6891,1526.6956 v 0 l -61.5723,35.5482 c -0.7156,0.4132 -1.6306,0.1679 -2.0437,-0.5476 -0.4132,-0.7156 -0.168,-1.6306 0.5476,-2.0439 v 0 l 61.5724,-35.5482 c 0.7155,-0.4131 1.6306,-0.1679 2.0437,0.5476 0.4131,0.7157 0.168,1.6306 -0.5477,2.0439 z"
         stroke="none"
         id="path165" />
    </g>
    <g
       text-rendering="geometricPrecision"
       id="g166">
      <path
         clip-path="url(#33562466544-clipPath1)"
         d="m 321.6207,1562.2438 v 0 l -61.5724,-35.5482 c -0.7155,-0.4133 -0.9607,-1.3282 -0.5476,-2.0439 0.4131,-0.7155 1.3282,-0.9607 2.0438,-0.5476 v 0 l 61.5723,35.5482 c 0.7156,0.4133 0.9608,1.3283 0.5477,2.0439 -0.4132,0.7155 -1.3282,0.9608 -2.0438,0.5476 z"
         stroke="none"
         id="path166" />
    </g>
    <g
       text-rendering="geometricPrecision"
       id="g167">
      <path
         clip-path="url(#33562466544-clipPath1)"
         d="m 261.5445,1526.6956 v 0 l -61.5677,35.5482 c -0.7156,0.4132 -1.6306,0.1679 -2.0438,-0.5476 -0.4132,-0.7156 -0.168,-1.6306 0.5476,-2.0437 v 0 l 61.5677,-35.5484 c 0.7156,-0.4131 1.6306,-0.1679 2.0438,0.5476 0.4131,0.7156 0.168,1.6306 -0.5476,2.0439 z"
         stroke="none"
         id="path167" />
    </g>
    <g
       text-rendering="geometricPrecision"
       id="g168">
      <path
         clip-path="url(#33562466544-clipPath1)"
         d="m 198.4806,1562.2438 v 0 l -61.5723,-35.5482 c -0.7156,-0.4133 -0.9608,-1.3282 -0.5477,-2.0439 0.4132,-0.7155 1.3282,-0.9607 2.0438,-0.5476 v 0 l 61.5723,35.5482 c 0.7156,0.4133 0.9608,1.3283 0.5477,2.0439 -0.4132,0.7155 -1.3282,0.9608 -2.0438,0.5476 z"
         stroke="none"
         id="path168" />
    </g>
    <g
       text-rendering="geometricPrecision"
       id="g169">
      <path
         clip-path="url(#33562466544-clipPath1)"
         d="m 138.4044,1526.6956 v 0 l -61.5724,35.5482 c -0.7156,0.4132 -1.6306,0.1679 -2.0437,-0.5476 -0.4132,-0.7156 -0.168,-1.6306 0.5476,-2.0439 v 0 l 61.5724,-35.5482 c 0.7156,-0.4131 1.6306,-0.1679 2.0437,0.5476 0.4132,0.7157 0.168,1.6306 -0.5476,2.0439 z"
         stroke="none"
         id="path169" />
    </g>
    <g
       text-rendering="geometricPrecision"
       id="g170">
      <path
         clip-path="url(#33562466544-clipPath1)"
         d="m 75.3359,1562.2438 v 0 l -61.5723,-35.5482 c -0.7156,-0.4133 -0.9608,-1.3282 -0.5477,-2.0439 0.4132,-0.7155 1.3282,-0.9607 2.0438,-0.5476 v 0 l 61.5723,35.5482 c 0.7156,0.4133 0.9608,1.3283 0.5477,2.0439 -0.4132,0.7155 -1.3282,0.9608 -2.0438,0.5476 z"
         stroke="none"
         id="path170" />
    </g>
    <g
       text-rendering="geometricPrecision"
       id="g171">
      <path
         clip-path="url(#33562466544-clipPath1)"
         d="m 446.2615,1420.0554 v 0 l -61.5711,35.5486 c -0.7156,0.4132 -1.6306,0.1681 -2.0438,-0.5476 -0.4131,-0.7156 -0.168,-1.6306 0.5476,-2.0437 v 0 l 61.5712,-35.5487 c 0.7156,-0.4131 1.6306,-0.168 2.0437,0.5476 0.4132,0.7156 0.168,1.6306 -0.5476,2.0438 z"
         stroke="none"
         id="path171" />
    </g>
    <g
       text-rendering="geometricPrecision"
       id="g172">
      <path
         clip-path="url(#33562466544-clipPath1)"
         d="m 383.1942,1455.6041 v 0 l -61.5716,-35.5478 c -0.7156,-0.4132 -0.9608,-1.3283 -0.5476,-2.0438 0.4131,-0.7156 1.3281,-0.9609 2.0437,-0.5477 v 0 l 61.5717,35.5479 c 0.7155,0.4131 0.9608,1.3281 0.5476,2.0437 -0.4131,0.7156 -1.3281,0.9608 -2.0438,0.5477 z"
         stroke="none"
         id="path172" />
    </g>
    <g
       text-rendering="geometricPrecision"
       id="g173">
      <path
         clip-path="url(#33562466544-clipPath1)"
         d="m 323.1187,1420.0563 v 0 l -61.5711,35.5486 c -0.7156,0.4132 -1.6306,0.1679 -2.0438,-0.5476 -0.4131,-0.7156 -0.1679,-1.6307 0.5477,-2.0438 v 0 l 61.5711,-35.5487 c 0.7156,-0.4132 1.6306,-0.1679 2.0438,0.5477 0.4131,0.7155 0.168,1.6306 -0.5477,2.0438 z"
         stroke="none"
         id="path173" />
    </g>
    <g
       text-rendering="geometricPrecision"
       id="g174">
      <path
         clip-path="url(#33562466544-clipPath1)"
         d="m 260.0515,1455.6049 v 0 l -61.5716,-35.5478 c -0.7156,-0.4132 -0.9608,-1.3282 -0.5477,-2.0438 0.4132,-0.7156 1.3282,-0.9608 2.0438,-0.5476 v 0 l 61.5716,35.5478 c 0.7156,0.4131 0.9608,1.3282 0.5476,2.0438 -0.4131,0.7155 -1.3281,0.9608 -2.0437,0.5476 z"
         stroke="none"
         id="path174" />
    </g>
    <g
       text-rendering="geometricPrecision"
       id="g175">
      <path
         clip-path="url(#33562466544-clipPath1)"
         d="m 199.976,1420.057 v 0 l -61.5712,35.5487 c -0.7155,0.4132 -1.6306,0.168 -2.0437,-0.5476 -0.4132,-0.7156 -0.168,-1.6306 0.5476,-2.0437 v 0 l 61.5711,-35.5487 c 0.7156,-0.4132 1.6307,-0.168 2.0438,0.5476 0.4132,0.7156 0.168,1.6306 -0.5476,2.0437 z"
         stroke="none"
         id="path175" />
    </g>
    <g
       text-rendering="geometricPrecision"
       id="g176">
      <path
         clip-path="url(#33562466544-clipPath1)"
         d="m 136.9087,1455.6057 v 0 l -61.5716,-35.5478 c -0.7156,-0.4131 -0.9608,-1.3282 -0.5476,-2.0437 0.4131,-0.7156 1.3281,-0.9609 2.0437,-0.5476 v 0 l 61.5716,35.5478 c 0.7156,0.4131 0.9608,1.3281 0.5477,2.0437 -0.4132,0.7156 -1.3282,0.9608 -2.0438,0.5476 z"
         stroke="none"
         id="path176" />
    </g>
    <g
       text-rendering="geometricPrecision"
       id="g177">
      <path
         clip-path="url(#33562466544-clipPath1)"
         d="m 76.8332,1420.0579 v 0 l -61.5711,35.5487 c -0.7156,0.4132 -1.6306,0.1679 -2.0438,-0.5476 -0.4131,-0.7156 -0.168,-1.6307 0.5476,-2.0439 v 0 l 61.5712,-35.5485 c 0.7156,-0.4133 1.6306,-0.168 2.0437,0.5476 0.4132,0.7155 0.168,1.6306 -0.5476,2.0437 z"
         stroke="none"
         id="path177" />
    </g>
    <g
       text-rendering="geometricPrecision"
       id="g178">
      <path
         clip-path="url(#33562466544-clipPath1)"
         d="m 1185.1158,1417.4594 v 0 l 38.9955,22.5145 c 0.7156,0.4131 0.9608,1.3281 0.5476,2.0437 -0.4131,0.7156 -1.3281,0.9608 -2.0437,0.5476 v 0 l -38.9956,-22.5144 c -0.7155,-0.4132 -0.9607,-1.3281 -0.5476,-2.0438 0.4132,-0.7156 1.3283,-0.9607 2.0438,-0.5476 z"
         stroke="none"
         id="path178" />
    </g>
    <g
       text-rendering="geometricPrecision"
       id="g179">
      <path
         clip-path="url(#33562466544-clipPath1)"
         d="m 1267.7666,1439.9741 v 0 l 19.6823,-11.3633 c 0.7155,-0.4132 1.6306,-0.1679 2.0437,0.5476 0.413,0.7156 0.1679,1.6307 -0.5477,2.0437 v 0 l -19.6822,11.3635 c -0.7156,0.413 -1.6306,0.1679 -2.0437,-0.5477 -0.4132,-0.7155 -0.168,-1.6306 0.5476,-2.0438 z"
         stroke="none"
         id="path179" />
    </g>
    <g
       text-rendering="geometricPrecision"
       id="g180">
      <path
         clip-path="url(#33562466544-clipPath1)"
         d="m 1327.5723,1428.6111 v 0 l 19.6819,11.3635 c 0.7155,0.4132 0.9606,1.3283 0.5476,2.0438 -0.4133,0.7156 -1.3283,0.9607 -2.0439,0.5476 v 0 l -19.6819,-11.3635 c -0.7155,-0.4131 -0.9606,-1.3281 -0.5476,-2.0437 0.4133,-0.7157 1.3283,-0.9608 2.0439,-0.5477 z"
         stroke="none"
         id="path180" />
    </g>
    <g
       text-rendering="geometricPrecision"
       id="g181">
      <path
         clip-path="url(#33562466544-clipPath1)"
         d="m 1390.9093,1439.975 v 0 l 38.996,-22.5139 c 0.7155,-0.4131 1.6306,-0.168 2.0437,0.5476 0.4132,0.7155 0.1679,1.6306 -0.5476,2.0438 v 0 l -38.9959,22.5139 c -0.7156,0.4131 -1.6306,0.168 -2.0438,-0.5476 -0.4131,-0.7157 -0.168,-1.6306 0.5476,-2.0438 z"
         stroke="none"
         id="path181" />
    </g>
    <g
       text-rendering="geometricPrecision"
       id="g182">
      <path
         clip-path="url(#33562466544-clipPath1)"
         d="m 1431.4014,1417.4611 v 0 l 61.5711,35.5487 c 0.7156,0.4131 0.9607,1.3281 0.5476,2.0437 -0.4132,0.7155 -1.3282,0.9608 -2.0438,0.5476 v 0 l -61.5711,-35.5486 c -0.7156,-0.4132 -0.9607,-1.3283 -0.5477,-2.0438 0.4133,-0.7156 1.3283,-0.9607 2.0439,-0.5476 z"
         stroke="none"
         id="path182" />
    </g>
    <g
       text-rendering="geometricPrecision"
       id="g183">
      <path
         clip-path="url(#33562466544-clipPath1)"
         d="m 1491.4763,1453.0098 v 0 l 41.8284,-24.1492 c 0.7156,-0.4132 1.6306,-0.168 2.0437,0.5476 0.4132,0.7156 0.168,1.6306 -0.5476,2.0437 v 0 l -41.8283,24.1492 c -0.7157,0.4132 -1.6306,0.1679 -2.0438,-0.5476 -0.4131,-0.7156 -0.168,-1.6306 0.5476,-2.0437 z"
         stroke="none"
         id="path183" />
    </g>
    <g
       text-rendering="geometricPrecision"
       id="g184">
      <path
         clip-path="url(#33562466544-clipPath1)"
         d="m 1574.2875,1428.8608 v 0 l 41.8277,24.1498 c 0.7156,0.4131 0.9608,1.3281 0.5476,2.0437 -0.413,0.7156 -1.3281,0.9608 -2.0437,0.5476 v 0 l -41.8278,-24.1496 c -0.7156,-0.4131 -0.9607,-1.3282 -0.5476,-2.0437 0.4132,-0.7157 1.3282,-0.9608 2.0438,-0.5478 z"
         stroke="none"
         id="path184" />
    </g>
    <g
       text-rendering="geometricPrecision"
       id="g185">
      <path
         clip-path="url(#33562466544-clipPath1)"
         d="m 1536.521,1398.702 v 0 l -27.1928,-35.4383 c -0.5029,-0.6555 -0.3793,-1.5948 0.2763,-2.0977 0.6555,-0.503 1.5947,-0.3794 2.0976,0.2761 v 0 l 27.1929,35.4384 c 0.5029,0.6555 0.3794,1.5947 -0.2762,2.0978 -0.6555,0.5029 -1.5948,0.3792 -2.0978,-0.2763 z"
         stroke="none"
         id="path185" />
    </g>
    <g
       text-rendering="geometricPrecision"
       id="g186">
      <path
         clip-path="url(#33562466544-clipPath1)"
         d="m 1568.6971,1396.8805 v 0 l 27.1928,-35.4384 c 0.503,-0.6555 1.4423,-0.7791 2.0978,-0.2761 0.6555,0.5029 0.7791,1.4422 0.2761,2.0977 v 0 l -27.1928,35.4383 c -0.503,0.6555 -1.4422,0.7792 -2.0977,0.2763 -0.6556,-0.5031 -0.7792,-1.4423 -0.2762,-2.0978 z"
         stroke="none"
         id="path186" />
    </g>
    <g
       text-rendering="geometricPrecision"
       id="g187">
      <path
         clip-path="url(#33562466544-clipPath1)"
         d="m 1299.5513,1390.8475 c 0,0.8263 0.6698,1.4961 1.4961,1.4961 0.8263,0 1.4962,-0.6698 1.4962,-1.4961 v -14.2212 c 0,-0.8263 -0.6698,-1.4961 -1.4961,-1.4961 -0.8263,0 -1.4961,0.6698 -1.4961,1.4961 z m 12.9266,0 c 0,0.8263 0.6698,1.4963 1.4961,1.4963 0.8263,0 1.4962,-0.67 1.4962,-1.4963 v -14.221 c 0,-0.8263 -0.6698,-1.4961 -1.4961,-1.4961 -0.8263,0 -1.4961,0.6698 -1.4961,1.4961 z"
         stroke="none"
         id="path187" />
    </g>
    <g
       text-rendering="geometricPrecision"
       id="g188">
      <path
         clip-path="url(#33562466544-clipPath1)"
         d="m 1311.4285,1446.512 v 0 l 2.7777,31.9099 c 0.072,0.8231 -0.5376,1.5486 -1.3607,1.6202 -0.8233,0.072 -1.5486,-0.5376 -1.6203,-1.3607 v 0 l -2.7777,-31.9099 c -0.072,-0.8231 0.5375,-1.5486 1.3607,-1.6203 0.8231,-0.072 1.5486,0.5376 1.6203,1.3608 z"
         stroke="none"
         id="path188" />
    </g>
    <g
       font-family="Arial"
       font-size="49px"
       text-rendering="geometricPrecision"
       transform="translate(980.8897,1425.808)"
       id="g202">
      <text
         clip-path="url(#33562466978-clipPath1)"
         stroke="none"
         x="0"
         xml:space="preserve"
         y="46"
         id="text201">O</text>
    </g>
    <g
       font-family="Arial"
       font-size="49px"
       text-rendering="geometricPrecision"
       transform="translate(919.3174,1319.1632)"
       id="g203">
      <text
         clip-path="url(#33562466274-clipPath1)"
         stroke="none"
         x="0"
         xml:space="preserve"
         y="46"
         id="text202">O</text>
    </g>
    <g
       font-family="Arial"
       font-size="49px"
       text-rendering="geometricPrecision"
       transform="translate(1104.0298,1496.8998)"
       id="g204">
      <text
         clip-path="url(#33562466372-clipPath1)"
         stroke="none"
         x="0"
         xml:space="preserve"
         y="46"
         id="text203">O</text>
    </g>
    <g
       font-family="Arial"
       font-size="49px"
       text-rendering="geometricPrecision"
       transform="translate(1042.4621,1603.5446)"
       id="g205">
      <text
         clip-path="url(#33562466870-clipPath1)"
         stroke="none"
         x="0"
         xml:space="preserve"
         y="46"
         id="text204">O</text>
    </g>
    <g
       font-family="Arial"
       font-size="49px"
       text-rendering="geometricPrecision"
       transform="translate(1227.1733,1425.8038)"
       id="g206">
      <text
         clip-path="url(#33562466541-clipPath1)"
         stroke="none"
         x="0"
         xml:space="preserve"
         y="46"
         id="text205">O</text>
    </g>
    <g
       font-family="Arial"
       font-size="49px"
       text-rendering="geometricPrecision"
       transform="translate(1291.1277,1390.2559)"
       id="g207">
      <text
         clip-path="url(#33562466268-clipPath1)"
         stroke="none"
         x="0"
         xml:space="preserve"
         y="46"
         id="text206">P</text>
    </g>
    <g
       font-family="Arial"
       font-size="49px"
       text-rendering="geometricPrecision"
       transform="translate(1350.316,1425.8046)"
       id="g208">
      <text
         clip-path="url(#33562466904-clipPath1)"
         stroke="none"
         x="0"
         xml:space="preserve"
         y="46"
         id="text207">O</text>
    </g>
    <g
       font-family="Arial"
       font-size="49px"
       text-rendering="geometricPrecision"
       transform="translate(1536.4836,1390.2576)"
       id="g209">
      <text
         clip-path="url(#33562466490-clipPath1)"
         stroke="none"
         x="0"
         xml:space="preserve"
         y="46"
         id="text208">N</text>
    </g>
    <g
       font-family="Arial"
       font-size="49px"
       text-rendering="geometricPrecision"
       id="g210">
      <path
         clip-path="url(#33562466544-clipPath1)"
         d="m 1552.5314,1374.0692 v 7.5881 h -7.5883 v 2.5295 h 7.5883 v 7.5881 h 2.5294 v -7.5881 h 7.5881 v -2.5295 h -7.5881 v -7.5881 z m 15.1764,-5.0588 v 27.8233 h -27.8234 v -27.8233 z m -27.8234,0 v 0 27.8233 0 h 27.8234 v 0 -27.8233 0 z"
         stroke="none"
         id="path209" />
      <text
         clip-path="url(#33562466765-clipPath1)"
         stroke="none"
         transform="translate(1288.7454,1319.1594)"
         x="0"
         xml:space="preserve"
         y="46"
         id="text209">O</text>
    </g>
    <g
       font-family="Arial"
       font-size="49px"
       text-rendering="geometricPrecision"
       transform="translate(1295.4293,1478.532)"
       id="g211">
      <text
         clip-path="url(#33562466510-clipPath1)"
         stroke="none"
         x="0"
         xml:space="preserve"
         y="46"
         id="text210">OH</text>
    </g>
  </g>
  <g
     font-family="sans-serif"
     text-rendering="geometricPrecision"
     transform="matrix(3.8077,0,0,3.8077,650.61633,309.1844)"
     id="g5">
    <text
       clip-path="url(#1167973738309-clipPath1)"
       stroke="none"
       x="5"
       xml:space="preserve"
       y="38.100101"
       id="text5">Cholesterol    </text>
  </g>
  <g
     font-family="sans-serif"
     text-rendering="geometricPrecision"
     transform="matrix(3.8077,0,0,3.8077,599.60854,-277.26676)"
     id="g6">
    <text
       clip-path="url(#1167973738777-clipPath1)"
       stroke="none"
       x="5"
       xml:space="preserve"
       y="265.98251"
       id="text6">A free fatty acid     </text>
  </g>
  <g
     font-family="sans-serif"
     text-rendering="geometricPrecision"
     transform="matrix(3.8077,0,0,3.8077,628.60894,-563.57205)"
     id="g7">
    <text
       clip-path="url(#116797373863-clipPath1)"
       stroke="none"
       x="5"
       xml:space="preserve"
       y="502.51859"
       id="text7">A triglyceride     </text>
  </g>
  <g
     font-family="sans-serif"
     text-rendering="geometricPrecision"
     transform="matrix(3.8077,0,0,3.8077,609.6087,-1239.0892)"
     id="g8">
    <text
       clip-path="url(#1167973738292-clipPath1)"
       stroke="none"
       x="5"
       xml:space="preserve"
       y="790.97742"
       id="text8">A phospholipid     </text>
  </g>
</svg>
